<?xml version="1.0" encoding="utf-8"?>
<!-- Generator: Adobe Illustrator 25.2.3, SVG Export Plug-In . SVG Version: 6.00 Build 0)  -->
<svg version="1.1" id="Layer_1" xmlns="http://www.w3.org/2000/svg" xmlns:xlink="http://www.w3.org/1999/xlink" x="0px" y="0px"
	 viewBox="0 0 207.1 207.1" style="enable-background:new 0 0 207.1 207.1;" xml:space="preserve">
<style type="text/css">
	.st0{display:none;}
	.st1{display:inline;}
	.st2{fill:#0B315E;}
	.st3{fill:#FF9D00;}
</style>
<g id="Layer_2_1_" class="st0">
	<g id="Layer_1-2" class="st1">
		<path class="st2" d="M103.5,207.1C46.3,207.1,0,160.7,0,103.5S46.3,0,103.5,0s103.5,46.4,103.5,103.5
			C207,160.7,160.7,207,103.5,207.1z M103.5,2.1C47.4,2.1,2,47.5,2,103.6s45.5,101.5,101.5,101.5s101.5-45.5,101.5-101.5
			c0,0,0,0,0-0.1C205,47.5,159.6,2.1,103.5,2.1L103.5,2.1z"/>
		<path class="st3" d="M103.5,190.1c-47.8,0-86.6-38.8-86.6-86.6s38.8-86.6,86.6-86.6s86.6,38.8,86.6,86.6
			C190.1,151.3,151.3,190.1,103.5,190.1z M103.5,23.8c-44,0-79.8,35.7-79.8,79.8s35.7,79.8,79.8,79.8s79.8-35.7,79.8-79.8
			c0,0,0,0,0,0C183.2,59.5,147.5,23.8,103.5,23.8z"/>
		<path class="st2" d="M103.5,173.2c-38.5,0-69.7-31.2-69.7-69.7S65,33.9,103.5,33.9s69.7,31.2,69.7,69.7
			C173.2,142,142,173.2,103.5,173.2z M103.5,35.9c-37.4,0-67.7,30.3-67.7,67.7s30.3,67.7,67.7,67.7s67.7-30.3,67.7-67.7c0,0,0,0,0,0
			C171.1,66.2,140.9,35.9,103.5,35.9z"/>
		<path class="st2" d="M103.5,156.3c-29.1,0-52.7-23.6-52.7-52.7c0-29.1,23.6-52.7,52.7-52.7c29.1,0,52.7,23.6,52.7,52.7l0,0
			C156.2,132.6,132.6,156.2,103.5,156.3z M103.5,52.8c-28,0-50.7,22.7-50.7,50.7s22.7,50.7,50.7,50.7s50.7-22.7,50.7-50.7
			c0,0,0,0,0,0C154.2,75.5,131.5,52.8,103.5,52.8z"/>
		<path class="st2" d="M103.5,139.3c-19.8,0-35.8-16-35.8-35.8s16-35.8,35.8-35.8s35.8,16,35.8,35.8
			C139.3,123.3,123.3,139.3,103.5,139.3z M103.5,69.7c-18.7,0-33.8,15.1-33.8,33.8s15.1,33.8,33.8,33.8s33.8-15.1,33.8-33.8
			c0,0,0,0,0,0C137.3,84.9,122.2,69.7,103.5,69.7z"/>
		<path class="st2" d="M103.5,122.4c-10.4,0-18.9-8.4-18.9-18.9c0-10.4,8.4-18.9,18.9-18.9c10.4,0,18.9,8.4,18.9,18.9
			C122.4,113.9,113.9,122.4,103.5,122.4z M103.5,86.7c-9.3,0-16.9,7.6-16.9,16.9s7.6,16.9,16.9,16.9c9.3,0,16.9-7.6,16.9-16.9
			c0,0,0,0,0,0C120.4,94.2,112.8,86.7,103.5,86.7z"/>
	</g>
</g>
<image style="overflow:visible;" width="622" height="622" xlink:href="new.png"  transform="matrix(0.3101 0 0 0.3101 7.075 7.075)">
</image>
</svg>
