<svg xmlns="http://www.w3.org/2000/svg" viewBox="0 0 17.7 58.86"><g id="Layer_2" data-name="Layer 2"><g id="Layer_1-2" data-name="Layer 1"><polygon points="8.85 28.02 15.68 34.86 17.7 32.85 8.85 24 0 32.85 2.01 34.86 8.85 28.02" fill="#ff9d00"/><polygon points="8.85 39.95 15.68 46.79 17.7 44.77 8.85 35.93 0 44.77 2.01 46.79 8.85 39.95" fill="#ff9d00"/><polygon points="8.85 52.03 15.68 58.86 17.7 56.85 8.85 48 0 56.85 2.01 58.86 8.85 52.03" fill="#ff9d00"/><polygon points="8.85 4.03 15.68 10.86 17.7 8.85 8.85 0 0 8.85 2.01 10.86 8.85 4.03" fill="#ff9d00"/><polygon points="8.85 15.95 15.68 22.79 17.7 20.77 8.85 11.93 0 20.77 2.01 22.79 8.85 15.95" fill="#ff9d00"/></g></g></svg>