<svg width="208" height="208" viewBox="0 0 208 208" fill="none" xmlns="http://www.w3.org/2000/svg">
<g clip-path="url(#clip0_232:41)">
<path d="M99.4769 133.461L93.7295 131.992C87.131 129.599 81.5871 124.956 78.0722 118.879C74.5574 112.802 73.2966 105.68 74.5115 98.7647C75.7265 91.8498 79.3394 85.5846 84.7151 81.0706C90.0909 76.5565 96.8853 74.0825 103.904 74.0835V82.027C99.0667 82.0255 94.365 83.6263 90.5329 86.5794C86.7009 89.5326 83.9543 93.6719 82.7219 98.3511C81.4896 103.03 81.8408 107.986 83.7209 112.444C85.6009 116.903 88.9038 120.613 93.1141 122.996L94.3549 115.32C91.7698 113.154 89.9966 110.174 89.3256 106.867C88.6545 103.561 89.1254 100.125 90.6611 97.1217C92.1968 94.1182 94.7064 91.7252 97.779 90.3344C100.852 88.9436 104.305 88.6374 107.574 89.466C110.844 90.2945 113.735 92.2088 115.775 94.8953C117.815 97.5818 118.882 100.881 118.803 104.254C118.724 107.627 117.502 110.872 115.338 113.46C113.174 116.048 110.196 117.824 106.892 118.498L105.304 110.713C106.903 110.384 108.335 109.503 109.349 108.223C110.363 106.943 110.894 105.347 110.85 103.715C110.805 102.082 110.187 100.518 109.105 99.2956C108.022 98.0733 106.544 97.2714 104.929 97.0305C103.314 96.7896 101.666 97.1251 100.274 97.9781C98.8822 98.8311 97.8348 100.147 97.3158 101.695C96.7968 103.244 96.8394 104.925 97.436 106.445C98.0327 107.965 99.1453 109.227 100.579 110.008L103.031 111.359L99.4769 133.461Z" fill="url(#paint0_linear_232:41)"/>
<path d="M125.812 99.6518L124.819 96.4844C123.688 92.9213 121.603 89.7359 118.791 87.2732C115.979 84.8105 112.547 83.1646 108.867 82.5136L110.426 74.729C114.957 75.5526 119.221 77.4637 122.852 80.2983C126.483 83.1329 129.372 86.8063 131.271 91.0033L137.763 90.2288C134.676 82.6725 125.742 67.7684 103.904 67.7684C96.1859 67.7461 88.6665 70.2151 82.4629 74.8084L77.7578 68.4138C85.3219 62.8105 94.4916 59.7983 103.904 59.8249C139.004 59.8249 146.836 92.3835 146.905 92.7211L147.898 97.0206L125.812 99.6518Z" fill="url(#paint1_linear_232:41)"/>
<path d="M68.3777 150.848L65.4792 148.336C58.9952 142.697 53.8162 135.714 50.3018 127.871L57.548 124.634C60.0686 130.225 63.5681 135.319 67.8814 139.677L72.4277 134.782C68.2733 130.544 65.0168 125.51 62.853 119.983C60.6893 114.456 59.6629 108.549 59.8353 102.615C60.0077 96.6818 61.3753 90.8442 63.8563 85.452C66.3373 80.0598 69.8806 75.2239 74.274 71.2339L79.6144 77.1121C75.7986 80.5774 72.7673 84.8187 70.7238 89.5515C68.6803 94.2843 67.6717 99.3994 67.7657 104.554C67.8597 109.708 69.0541 114.783 71.2688 119.439C73.4836 124.094 76.6674 128.221 80.6071 131.545L83.7835 134.236L68.3777 150.848Z" fill="url(#paint2_linear_232:41)"/>
<path d="M48.1077 122.241C44.9396 112.51 44.3479 102.124 46.3905 92.0957L54.1728 93.6943C52.3957 102.384 52.9054 111.386 55.6518 119.819L48.1077 122.241Z" fill="url(#paint3_linear_232:41)"/>
<path d="M55.4728 88.6501L47.8989 86.2571C50.4785 78.1023 54.8061 70.6088 60.5797 64.2997C66.3533 57.9906 73.4339 53.0179 81.327 49.7286C89.2202 46.4393 97.7359 44.9128 106.28 45.2555C114.824 45.5981 123.19 47.8018 130.794 51.7127L127.151 58.7725C120.575 55.3928 113.341 53.4891 105.953 53.1942C98.5654 52.8993 91.2024 54.2203 84.3777 57.065C77.553 59.9097 71.4309 64.2097 66.4387 69.6649C61.4464 75.1201 57.704 81.5992 55.4728 88.6501V88.6501Z" fill="url(#paint4_linear_232:41)"/>
<path d="M151.293 161.095L135.5 143.878L138.399 141.187C143.958 136.036 148.294 129.707 151.089 122.662C153.885 115.617 155.068 108.035 154.553 100.473C154.038 92.9113 151.838 85.5604 148.113 78.9598C144.389 72.3591 139.234 66.676 133.028 62.3273L137.585 55.8235C144.482 60.661 150.258 66.9265 154.521 74.1947C158.784 81.4628 161.433 89.5634 162.289 97.9464C163.145 106.329 162.187 114.799 159.482 122.779C156.776 130.759 152.385 138.063 146.608 144.195L151.67 149.726C155.847 145.379 159.411 140.482 162.262 135.17L169.21 138.933C165.314 146.197 160.235 152.761 154.182 158.355L151.293 161.095Z" fill="url(#paint5_linear_232:41)"/>
<path d="M171.95 133.382L164.664 130.224C167.521 123.628 169.278 116.607 169.865 109.442L177.806 110.097C177.142 118.127 175.163 125.994 171.95 133.382Z" fill="url(#paint6_linear_232:41)"/>
<path d="M103.904 192.969V185.025C125.399 185.004 146.007 176.453 161.206 161.25C176.404 146.047 184.952 125.432 184.973 103.931C184.982 97.2299 184.012 90.5632 182.095 84.142L181.102 80.3291L203.258 74.1431L204.25 78.0255C206.606 86.4593 207.801 95.1747 207.804 103.931C207.814 114.527 206.203 125.061 203.03 135.169L195.456 132.786C198.388 123.449 199.875 113.718 199.863 103.931C199.881 97.213 199.118 90.5153 197.59 83.9732L190.741 85.8797C192.216 91.7824 192.947 97.8469 192.915 103.931C192.891 127.538 183.505 150.171 166.818 166.864C150.13 183.557 127.504 192.945 103.904 192.969Z" fill="url(#paint7_linear_232:41)"/>
<path d="M145.138 199.353L141.992 192.065C164.457 182.373 182.365 164.449 192.041 141.971L199.327 145.119C188.856 169.459 169.466 188.866 145.138 199.353V199.353Z" fill="url(#paint8_linear_232:41)"/>
<path d="M103.904 207.863C85.2083 207.868 66.8574 202.828 50.7852 193.274C34.713 183.72 21.5147 170.007 12.5811 153.579L19.5295 149.776C30.3815 169.693 47.9236 185.13 69.0548 193.36C90.186 201.589 113.545 202.08 135.004 194.746L137.654 202.233C126.793 205.965 115.388 207.867 103.904 207.863V207.863Z" fill="url(#paint9_linear_232:41)"/>
<path d="M9.30542 146.985C0.0229876 126.527 -2.3913 103.614 2.42346 81.6698C7.23821 59.7257 19.0234 39.9295 36.0174 25.2405L41.2089 31.2577C25.5252 44.8216 14.6491 63.0968 10.2049 83.3537C5.76083 103.611 7.98727 124.762 16.5517 143.649L9.30542 146.985Z" fill="url(#paint10_linear_232:41)"/>
<path d="M47.3239 26.4817L42.6387 20.0673C46.7392 17.0706 51.052 14.376 55.543 12.0046L59.2555 19.0248C55.1015 21.2154 51.1136 23.7077 47.3239 26.4817V26.4817Z" fill="url(#paint11_linear_232:41)"/>
<path d="M183.315 50.0642C170.939 31.8361 152.677 18.4156 131.588 12.0508C110.499 5.68601 87.8636 6.76345 67.474 15.1027L64.4961 7.75491C86.5738 -1.28533 111.087 -2.45908 133.927 4.43042C156.767 11.3199 176.545 25.8539 189.946 45.596L183.315 50.0642Z" fill="url(#paint12_linear_232:41)"/>
<path d="M180.864 77.7575L179.514 74.2524C173.916 59.6069 164.158 46.9191 151.442 37.7518L156.078 31.3076C169.016 40.6295 179.187 53.2846 185.509 67.9274L192.011 65.8422C190.422 62.1661 188.602 58.5943 186.562 55.1482L193.401 51.097C196.378 56.1394 198.925 61.4241 201.014 66.8947L202.513 70.8665L180.864 77.7575Z" fill="url(#paint13_linear_232:41)"/>
<path d="M145.883 34.0976C139.026 29.982 131.581 26.9351 123.807 25.0619L125.673 17.3467C134.226 19.4053 142.416 22.7534 149.963 27.2761L145.883 34.0976Z" fill="url(#paint14_linear_232:41)"/>
<path d="M95.1987 192.551C74.2963 190.489 54.7953 181.103 40.1409 166.051C25.4864 151 16.6215 131.252 15.1123 110.296L23.0534 109.73C24.3557 128.836 32.4019 146.858 45.7562 160.58C59.1106 174.302 76.9044 182.832 95.963 184.648L95.1987 192.551Z" fill="url(#paint15_linear_232:41)"/>
<path d="M22.8347 103.931H14.8936C14.8903 95.8779 15.979 87.8613 18.1296 80.1006L25.7829 82.2255C23.8265 89.2947 22.8348 96.5961 22.8347 103.931Z" fill="url(#paint16_linear_232:41)"/>
<path d="M28.4636 74.282L21.0684 71.3727C26.915 56.4502 36.6847 43.3856 49.3442 33.5608C62.0037 23.736 77.0824 17.5163 92.9853 15.5594L97.1941 15.053L98.4746 37.7814L94.782 38.2283C83.0785 39.6529 71.9911 44.2658 62.7296 51.5635L57.816 45.3477C67.224 37.9255 78.3317 32.9638 90.1364 30.9103L89.7493 24.0987C76.091 26.5087 63.2812 32.3898 52.5492 41.1776C41.8172 49.9654 33.5234 61.3649 28.4636 74.282V74.282Z" fill="url(#paint17_linear_232:41)"/>
<path d="M48.733 153.459C35.9617 139.112 29.1943 120.401 29.8318 101.201C30.4693 82.0006 38.4627 63.7806 52.1576 50.3123L57.6965 56.0118C45.4607 68.0488 38.3194 84.3306 37.7503 101.488C37.1812 118.645 43.2279 135.365 54.6392 148.187L48.733 153.459Z" fill="url(#paint18_linear_232:41)"/>
<path d="M103.904 178.085C84.5613 178.127 65.9766 170.563 52.1577 157.024L57.7066 151.335C67.8874 161.263 80.9927 167.649 95.0835 169.548C109.174 171.447 123.502 168.758 135.947 161.88L131.787 156.051C124.357 160.118 116.064 162.354 107.597 162.575L107.22 154.631C116.402 154.194 123.866 151.901 130.715 147.413L133.902 145.317L147.332 164.183L143.818 166.437C131.902 174.061 118.049 178.104 103.904 178.085V178.085Z" fill="url(#paint19_linear_232:41)"/>
<path d="M103.904 162.654C94.2085 162.665 84.6605 160.277 76.1103 155.703L71.8618 153.42L86.0367 136.182L88.7268 137.235C93.598 139.003 98.7238 139.969 103.904 140.094C122.685 140.094 137.704 126.839 139.808 109.204L133.505 109.641C131.698 123.631 119.558 133.779 103.904 133.779V125.836C116.59 125.836 125.802 117.455 125.802 105.917V102.214L147.997 100.665V104.924C147.997 129.102 128.631 148.038 103.904 148.038C98.7072 147.955 93.549 147.126 88.5878 145.575L84.3195 150.798C90.526 153.381 97.182 154.711 103.904 154.71V162.654Z" fill="url(#paint20_linear_232:41)"/>
<path d="M156.842 51.5239C146.826 41.2645 133.974 34.2317 119.935 31.3274L118.377 39.0922C148.255 45.2385 170.094 71.5118 170.094 103.931H178.035C178.146 84.352 170.531 65.5192 156.842 51.5239V51.5239Z" fill="url(#paint21_linear_232:41)"/>
<path d="M116.392 30.6821C113.899 30.2867 111.388 30.0215 108.867 29.8877V22.9371C111.736 23.0778 114.596 23.3694 117.434 23.8109L118.655 15.9667C114.103 15.2551 109.504 14.8966 104.897 14.8943H100.926V37.732H104.897C108.394 37.7332 111.885 38.0087 115.339 38.5561L116.392 30.6821Z" fill="url(#paint22_linear_232:41)"/>
</g>
<defs>
<linearGradient id="paint0_linear_232:41" x1="16627.4" y1="15918.5" x2="18642.3" y2="15918.5" gradientUnits="userSpaceOnUse">
<stop offset="0.02" stop-color="#EF4860"/>
<stop offset="1" stop-color="#DD1047"/>
</linearGradient>
<linearGradient id="paint1_linear_232:41" x1="26286.3" y1="9723.08" x2="31241.7" y2="9723.08" gradientUnits="userSpaceOnUse">
<stop stop-color="#379278"/>
<stop offset="1" stop-color="#1E514D"/>
</linearGradient>
<linearGradient id="paint2_linear_232:41" x1="11634.3" y1="21899.1" x2="12764" y2="21899.1" gradientUnits="userSpaceOnUse">
<stop stop-color="#2C1E3B"/>
<stop offset="1" stop-color="#18121F"/>
</linearGradient>
<linearGradient id="paint3_linear_232:41" x1="3608.08" y1="8239.28" x2="3718.14" y2="8239.28" gradientUnits="userSpaceOnUse">
<stop stop-color="#FDD259"/>
<stop offset="1" stop-color="#FD8C28"/>
</linearGradient>
<linearGradient id="paint4_linear_232:41" x1="28529.2" y1="10025.1" x2="35451.8" y2="10025.1" gradientUnits="userSpaceOnUse">
<stop stop-color="#379278"/>
<stop offset="1" stop-color="#1E514D"/>
</linearGradient>
<linearGradient id="paint5_linear_232:41" x1="15667.3" y1="28643.4" x2="16987.6" y2="28643.4" gradientUnits="userSpaceOnUse">
<stop stop-color="#2C1E3B"/>
<stop offset="1" stop-color="#18121F"/>
</linearGradient>
<linearGradient id="paint6_linear_232:41" x1="6226.16" y1="6922.97" x2="6399.77" y2="6922.97" gradientUnits="userSpaceOnUse">
<stop offset="0.02" stop-color="#EF4860"/>
<stop offset="1" stop-color="#DD1047"/>
</linearGradient>
<linearGradient id="paint7_linear_232:41" x1="41663.9" y1="35346.3" x2="52539.1" y2="35346.3" gradientUnits="userSpaceOnUse">
<stop stop-color="#379278"/>
<stop offset="1" stop-color="#1E514D"/>
</linearGradient>
<linearGradient id="paint8_linear_232:41" x1="25275.9" y1="19319.7" x2="28587.6" y2="19319.7" gradientUnits="userSpaceOnUse">
<stop stop-color="#7CEEE2"/>
<stop offset="1" stop-color="#64A2E2"/>
</linearGradient>
<linearGradient id="paint9_linear_232:41" x1="38537.5" y1="20040.6" x2="54290.5" y2="20040.6" gradientUnits="userSpaceOnUse">
<stop offset="0.02" stop-color="#EF4860"/>
<stop offset="1" stop-color="#DD1047"/>
</linearGradient>
<linearGradient id="paint10_linear_232:41" x1="12168.8" y1="30345.8" x2="13879.2" y2="30345.8" gradientUnits="userSpaceOnUse">
<stop stop-color="#379278"/>
<stop offset="1" stop-color="#1E514D"/>
</linearGradient>
<linearGradient id="paint11_linear_232:41" x1="5662.95" y1="2641.92" x2="5940.78" y2="2641.92" gradientUnits="userSpaceOnUse">
<stop stop-color="#2C1E3B"/>
<stop offset="1" stop-color="#18121F"/>
</linearGradient>
<linearGradient id="paint12_linear_232:41" x1="45259.2" y1="9389.05" x2="61113.5" y2="9389.05" gradientUnits="userSpaceOnUse">
<stop stop-color="#379278"/>
<stop offset="1" stop-color="#1E514D"/>
</linearGradient>
<linearGradient id="paint13_linear_232:41" x1="23025.8" y1="10122.5" x2="25653.4" y2="10122.5" gradientUnits="userSpaceOnUse">
<stop stop-color="#FDD259"/>
<stop offset="1" stop-color="#FD8C28"/>
</linearGradient>
<linearGradient id="paint14_linear_232:41" x1="11110.7" y1="3170.38" x2="11799.9" y2="3170.38" gradientUnits="userSpaceOnUse">
<stop stop-color="#2C1E3B"/>
<stop offset="1" stop-color="#18121F"/>
</linearGradient>
<linearGradient id="paint15_linear_232:41" x1="25123.3" y1="26161.2" x2="31708.6" y2="26161.2" gradientUnits="userSpaceOnUse">
<stop stop-color="#2C1E3B"/>
<stop offset="1" stop-color="#18121F"/>
</linearGradient>
<linearGradient id="paint16_linear_232:41" x1="3394.17" y1="6156.44" x2="3513.63" y2="6156.44" gradientUnits="userSpaceOnUse">
<stop stop-color="#7CEEE2"/>
<stop offset="1" stop-color="#64A2E2"/>
</linearGradient>
<linearGradient id="paint17_linear_232:41" x1="24520.9" y1="12293.8" x2="30560.2" y2="12293.8" gradientUnits="userSpaceOnUse">
<stop stop-color="#379278"/>
<stop offset="1" stop-color="#1E514D"/>
</linearGradient>
<linearGradient id="paint18_linear_232:41" x1="9108.17" y1="27376" x2="9893.16" y2="27376" gradientUnits="userSpaceOnUse">
<stop stop-color="#379278"/>
<stop offset="1" stop-color="#1E514D"/>
</linearGradient>
<linearGradient id="paint19_linear_232:41" x1="33160.5" y1="10800.6" x2="42285.9" y2="10800.6" gradientUnits="userSpaceOnUse">
<stop stop-color="#FDD259"/>
<stop offset="1" stop-color="#FD8C28"/>
</linearGradient>
<linearGradient id="paint20_linear_232:41" x1="28071.5" y1="18383.2" x2="33908.1" y2="18383.2" gradientUnits="userSpaceOnUse">
<stop stop-color="#379278"/>
<stop offset="1" stop-color="#1E514D"/>
</linearGradient>
<linearGradient id="paint21_linear_232:41" x1="24851.8" y1="16762.2" x2="28437.3" y2="16762.2" gradientUnits="userSpaceOnUse">
<stop stop-color="#379278"/>
<stop offset="1" stop-color="#1E514D"/>
</linearGradient>
<linearGradient id="paint22_linear_232:41" x1="7139.18" y1="4492.66" x2="7455.81" y2="4492.66" gradientUnits="userSpaceOnUse">
<stop stop-color="#7CEEE2"/>
<stop offset="1" stop-color="#64A2E2"/>
</linearGradient>
<clipPath id="clip0_232:41">
<rect width="207.05" height="207.05" fill="white"/>
</clipPath>
</defs>
</svg>
