<svg xmlns="http://www.w3.org/2000/svg" viewBox="0 0 88.69 88.69"><g id="Layer_2" data-name="Layer 2"><g id="Layer_1-2" data-name="Layer 1"><path d="M5.82,22.37,22.37,5.82a44.66,44.66,0,0,0-8.13,6l-2.45,2.45A44.66,44.66,0,0,0,5.82,22.37Z" fill="#0b315e"/><path d="M.88,35.53,35.53.88c-1,.19-1.9.42-2.83.67L1.55,32.7C1.3,33.63,1.07,34.58.88,35.53Z" fill="#0b315e"/><path d="M0,44.34v.28L44.62,0h-.28c-.64,0-1.28,0-1.92,0L0,42.42C0,43.06,0,43.7,0,44.34Z" fill="#0b315e"/><path d="M.69,52.16,52.16.69C51.54.58,50.91.48,50.28.4L.4,50.28C.48,50.91.58,51.54.69,52.16Z" fill="#0b315e"/><path d="M2.37,58.69,58.69,2.37l-1.64-.52L1.85,57.05C2,57.6,2.19,58.15,2.37,58.69Z" fill="#0b315e"/><path d="M4.82,64.46,64.46,4.82c-.48-.25-1-.48-1.45-.71L4.11,63C4.34,63.5,4.57,64,4.82,64.46Z" fill="#0b315e"/><path d="M7.9,69.6,69.6,7.9Q69,7.45,68.31,7L7,68.31Q7.45,69,7.9,69.6Z" fill="#0b315e"/><path d="M11.54,74.18,74.18,11.54c-.38-.35-.76-.68-1.15-1L10.53,73C10.86,73.42,11.19,73.8,11.54,74.18Z" fill="#0b315e"/><path d="M15.72,78.21,78.21,15.72c-.33-.39-.66-.77-1-1.15L14.57,77.2C15,77.55,15.33,77.88,15.72,78.21Z" fill="#0b315e"/><path d="M20.45,81.71,81.71,20.45l-.87-1.3L19.15,80.84Z" fill="#0b315e"/><path d="M25.76,84.61,84.61,25.76c-.22-.49-.46-1-.7-1.46L24.3,83.91C24.78,84.15,25.27,84.39,25.76,84.61Z" fill="#0b315e"/><path d="M31.73,86.86,86.86,31.73c-.16-.56-.33-1.1-.52-1.65L30.08,86.34C30.63,86.53,31.17,86.7,31.73,86.86Z" fill="#0b315e"/><path d="M38.5,88.3,88.3,38.5c-.08-.63-.17-1.25-.28-1.87L36.63,88C37.25,88.13,37.87,88.22,38.5,88.3Z" fill="#0b315e"/><path d="M44.34,88.69c.69,0,1.37,0,2,0L88.64,46.39c0-.68,0-1.36,0-2v-.16L44.18,88.69Z" fill="#0b315e"/><path d="M56.15,87.1,87.1,56.15c.25-.94.49-1.89.68-2.85L53.3,87.78C54.26,87.59,55.21,87.35,56.15,87.1Z" fill="#0b315e"/><path d="M82.71,66.59,66.59,82.71A44.65,44.65,0,0,0,82.71,66.59Z" fill="#0b315e"/></g></g></svg>