<svg xmlns="http://www.w3.org/2000/svg" viewBox="0 0 207.05 207.05"><g id="Layer_2" data-name="Layer 2"><g id="Layer_1-2" data-name="Layer 1"><path d="M103.52,207.05A103.53,103.53,0,1,1,207.05,103.52,103.64,103.64,0,0,1,103.52,207.05Zm0-205A101.53,101.53,0,1,0,205.05,103.52,101.63,101.63,0,0,0,103.52,2Z" fill="#0b315e"/><path d="M103.52,190.12a86.6,86.6,0,1,1,86.6-86.6A86.7,86.7,0,0,1,103.52,190.12Zm0-166.34a79.75,79.75,0,1,0,79.75,79.74A79.84,79.84,0,0,0,103.52,23.78Z" fill="#ff9d00"/><path d="M103.52,173.19a69.67,69.67,0,1,1,69.67-69.67A69.74,69.74,0,0,1,103.52,173.19Zm0-137.33a67.67,67.67,0,1,0,67.67,67.66A67.75,67.75,0,0,0,103.52,35.86Z" fill="#0b315e"/><path d="M103.52,156.25a52.73,52.73,0,1,1,52.73-52.73A52.78,52.78,0,0,1,103.52,156.25Zm0-103.45a50.73,50.73,0,1,0,50.73,50.72A50.77,50.77,0,0,0,103.52,52.8Z" fill="#0b315e"/><path d="M103.52,139.32a35.8,35.8,0,1,1,35.8-35.8A35.84,35.84,0,0,1,103.52,139.32Zm0-69.59a33.8,33.8,0,1,0,33.8,33.79A33.83,33.83,0,0,0,103.52,69.73Z" fill="#0b315e"/><path d="M103.52,122.39a18.87,18.87,0,1,1,18.87-18.87A18.88,18.88,0,0,1,103.52,122.39Zm0-35.73a16.87,16.87,0,1,0,16.87,16.86A16.89,16.89,0,0,0,103.52,86.66Z" fill="#0b315e"/></g></g></svg>