<svg xmlns="http://www.w3.org/2000/svg" viewBox="0 0 391.19 391.19"><g id="Layer_2" data-name="Layer 2"><g id="Layer_1-2" data-name="Layer 1"><circle cx="195.59" cy="195.59" r="195.59" fill="#f9f5ef"/><circle cx="198.5" cy="43.42" r="2.5" fill="#114a82"/><path d="M224.63,48.09a2.44,2.44,0,1,1,2.44-2.44A2.45,2.45,0,0,1,224.63,48.09Z" fill="#114a82"/><circle cx="249.98" cy="52.35" r="2.38" fill="#114a82"/><path d="M273.8,65.64a2.32,2.32,0,1,1,2.32-2.32A2.32,2.32,0,0,1,273.8,65.64Z" fill="#114a82"/><path d="M295.37,80.49a2.27,2.27,0,1,1,2.26-2.26A2.26,2.26,0,0,1,295.37,80.49Z" fill="#114a82"/><circle cx="314.08" cy="96.6" r="2.21" fill="#114a82"/><path d="M329.37,120.05a2.15,2.15,0,1,1,2.15-2.15A2.14,2.14,0,0,1,329.37,120.05Z" fill="#114a82"/><circle cx="340.78" cy="141.51" r="2.09" transform="translate(146.81 455.41) rotate(-80.84)" fill="#114a82"/><path d="M347.94,168.76a2,2,0,1,1,2-2A2,2,0,0,1,347.94,168.76Z" fill="#114a82"/><path d="M350.65,194.79a2,2,0,1,1,2-2A2,2,0,0,1,350.65,194.79Z" fill="#114a82"/><path d="M348.89,220.89A1.91,1.91,0,1,1,350.8,219,1.9,1.9,0,0,1,348.89,220.89Z" fill="#114a82"/><path d="M342.66,246.31a1.85,1.85,0,1,1,1.85-1.85A1.85,1.85,0,0,1,342.66,246.31Z" fill="#114a82"/><path d="M332.12,270.26a1.79,1.79,0,1,1,1.8-1.79A1.79,1.79,0,0,1,332.12,270.26Z" fill="#114a82"/><path d="M317.61,292.05a1.74,1.74,0,1,1,1.74-1.74A1.73,1.73,0,0,1,317.61,292.05Z" fill="#114a82"/><path d="M299.58,311a1.68,1.68,0,1,1,1.68-1.68A1.68,1.68,0,0,1,299.58,311Z" fill="#114a82"/><path d="M278.56,326.65a1.62,1.62,0,1,1,1.62-1.62A1.62,1.62,0,0,1,278.56,326.65Z" fill="#114a82"/><path d="M255.17,338.43a1.56,1.56,0,1,1,1.55-1.56A1.56,1.56,0,0,1,255.17,338.43Z" fill="#114a82"/><path d="M230.08,346a1.5,1.5,0,1,1,1.49-1.5A1.5,1.5,0,0,1,230.08,346Z" fill="#114a82"/><path d="M204.05,349.11a1.44,1.44,0,1,1,1.44-1.44A1.43,1.43,0,0,1,204.05,349.11Z" fill="#114a82"/><path d="M177.85,347.76a1.38,1.38,0,1,1,1.38-1.38A1.38,1.38,0,0,1,177.85,347.76Z" fill="#114a82"/><path d="M152.27,342a1.33,1.33,0,1,1,1.32-1.33A1.33,1.33,0,0,1,152.27,342Z" fill="#114a82"/><path d="M128.07,331.79a1.27,1.27,0,1,1,1.26-1.26A1.26,1.26,0,0,1,128.07,331.79Z" fill="#114a82"/><path d="M106,317.62a1.21,1.21,0,1,1,1.21-1.2A1.2,1.2,0,0,1,106,317.62Z" fill="#114a82"/><circle cx="86.6" cy="298.73" r="1.15" fill="#114a82"/><circle cx="198.5" cy="55.13" r="2.5" fill="#114a82"/><path d="M224.31,59.9a2.41,2.41,0,1,1,2.41-2.4A2.4,2.4,0,0,1,224.31,59.9Z" fill="#114a82"/><circle cx="249.25" cy="64.58" r="2.31" fill="#114a82"/><path d="M272.45,78.37a2.22,2.22,0,1,1,2.22-2.22A2.22,2.22,0,0,1,272.45,78.37Z" fill="#114a82"/><path d="M293.13,93.91a2.12,2.12,0,1,1,2.12-2.12A2.11,2.11,0,0,1,293.13,93.91Z" fill="#114a82"/><path d="M310.6,113a2,2,0,1,1,2-2A2,2,0,0,1,310.6,113Z" fill="#114a82"/><path d="M324.26,134.9A1.93,1.93,0,1,1,326.2,133,1.93,1.93,0,0,1,324.26,134.9Z" fill="#114a82"/><circle cx="333.63" cy="157.14" r="1.84" fill="#114a82"/><path d="M338.37,184.37a1.74,1.74,0,1,1,1.74-1.74A1.74,1.74,0,0,1,338.37,184.37Z" fill="#114a82"/><path d="M338.37,210.2a1.65,1.65,0,1,1,1.65-1.64A1.64,1.64,0,0,1,338.37,210.2Z" fill="#114a82"/><path d="M333.63,235.6a1.56,1.56,0,1,1,1.56-1.56A1.56,1.56,0,0,1,333.63,235.6Z" fill="#114a82"/><path d="M324.26,259.67a1.46,1.46,0,1,1,1.46-1.46A1.45,1.45,0,0,1,324.26,259.67Z" fill="#114a82"/><path d="M310.6,281.61a1.37,1.37,0,1,1,1.36-1.37A1.37,1.37,0,0,1,310.6,281.61Z" fill="#114a82"/><path d="M293.13,300.67a1.27,1.27,0,1,1,1.27-1.27A1.27,1.27,0,0,1,293.13,300.67Z" fill="#114a82"/><path d="M272.45,316.21a1.18,1.18,0,1,1,1.18-1.17A1.17,1.17,0,0,1,272.45,316.21Z" fill="#114a82"/><path d="M249.25,327.69a1.08,1.08,0,0,1,0-2.16,1.08,1.08,0,0,1,0,2.16Z" fill="#114a82"/><circle cx="224.32" cy="333.69" r="0.99" fill="#114a82"/><circle cx="198.5" cy="336.06" r="0.89" fill="#114a82"/><circle cx="198.5" cy="68.62" r="2.5" fill="#114a82"/><path d="M223.27,73.31A2.28,2.28,0,1,1,225.55,71,2.27,2.27,0,0,1,223.27,73.31Z" fill="#114a82"/><path d="M247.1,80.31a2.05,2.05,0,1,1,2.05-2A2.05,2.05,0,0,1,247.1,80.31Z" fill="#114a82"/><circle cx="269.04" cy="90.01" r="1.82" fill="#114a82"/><path d="M288.28,107.41a1.6,1.6,0,1,1,1.6-1.6A1.6,1.6,0,0,1,288.28,107.41Z" fill="#114a82"/><path d="M304.08,126.42a1.38,1.38,0,1,1,1.37-1.37A1.37,1.37,0,0,1,304.08,126.42Z" fill="#114a82"/><path d="M315.83,148.14A1.15,1.15,0,1,1,317,147,1.15,1.15,0,0,1,315.83,148.14Z" fill="#114a82"/><path d="M323.05,171.74a.92.92,0,1,1,.92-.92A.92.92,0,0,1,323.05,171.74Z" fill="#114a82"/><circle cx="325.47" cy="195.59" r="0.69" fill="#114a82"/><circle cx="191.97" cy="182.76" r="119" fill="#ff9d00"/></g></g></svg>