<svg width="1801" height="1801" viewBox="0 0 1801 1801" fill="none" xmlns="http://www.w3.org/2000/svg">
<path d="M867.143 1148.54L819.555 1136.37C764.92 1116.56 719.017 1078.12 689.914 1027.8C660.811 977.48 650.372 918.51 660.432 861.255C670.491 804.001 700.406 752.126 744.917 714.75C789.427 677.374 845.685 656.889 903.8 656.897V722.669C863.746 722.657 824.816 735.911 793.088 760.363C761.359 784.814 738.617 819.088 728.413 857.831C718.209 896.574 721.118 937.607 736.684 974.522C752.251 1011.44 779.599 1042.16 814.459 1061.89L824.733 998.336C803.329 980.396 788.647 955.72 783.091 928.345C777.535 900.971 781.433 872.521 794.149 847.652C806.865 822.783 827.643 802.969 853.084 791.454C878.525 779.938 907.121 777.403 934.19 784.263C961.259 791.123 985.198 806.973 1002.09 829.217C1018.98 851.461 1027.82 878.782 1027.16 906.707C1026.5 934.632 1016.39 961.507 998.474 982.932C980.557 1004.36 955.9 1019.06 928.539 1024.64L915.388 960.188C928.628 957.464 940.486 950.164 948.883 939.568C957.28 928.972 961.679 915.757 961.309 902.241C960.939 888.725 955.823 875.771 946.859 865.651C937.894 855.531 925.654 848.892 912.285 846.897C898.916 844.902 885.272 847.68 873.745 854.743C862.219 861.805 853.547 872.702 849.249 885.522C844.952 898.341 845.305 912.265 850.245 924.851C855.185 937.436 864.397 947.88 876.266 954.351L896.567 965.532L867.143 1148.54Z" fill="url(#paint0_linear_232:41)"/>
<path d="M1085.19 868.6L1076.97 842.373C1067.6 812.872 1050.34 786.496 1027.06 766.106C1003.78 745.715 975.363 732.087 944.891 726.697L957.795 662.241C995.315 669.06 1030.62 684.884 1060.68 708.354C1090.75 731.824 1114.67 762.24 1130.39 796.991L1184.15 790.578C1158.58 728.013 1084.61 604.608 903.796 604.608C839.891 604.423 777.631 624.866 726.266 662.898L687.308 609.952C749.938 563.557 825.862 538.616 903.796 538.836C1194.42 538.836 1259.27 808.419 1259.84 811.214L1268.06 846.813L1085.19 868.6Z" fill="url(#paint1_linear_232:41)"/>
<path d="M609.641 1292.5L585.642 1271.7C531.955 1225.01 489.073 1167.19 459.974 1102.26L519.972 1075.45C540.842 1121.74 569.818 1163.92 605.532 1200.01L643.175 1159.48C608.777 1124.38 581.813 1082.7 563.897 1036.94C545.981 991.175 537.483 942.264 538.91 893.136C540.338 844.009 551.661 795.674 572.204 751.027C592.746 706.38 622.084 666.339 658.462 633.302L702.68 681.973C671.085 710.666 645.987 745.783 629.066 784.97C612.146 824.158 603.796 866.51 604.574 909.189C605.352 951.869 615.242 993.888 633.579 1032.43C651.917 1070.98 678.279 1105.15 710.899 1132.68L737.2 1154.96L609.641 1292.5Z" fill="url(#paint2_linear_232:41)"/>
<path d="M441.808 1055.64C415.576 975.068 410.677 889.068 427.589 806.036L492.026 819.273C477.312 891.219 481.532 965.755 504.273 1035.58L441.808 1055.64Z" fill="url(#paint3_linear_232:41)"/>
<path d="M502.791 777.508L440.08 757.694C461.438 690.173 497.271 628.128 545.076 575.889C592.881 523.65 651.507 482.476 716.862 455.241C782.217 428.007 852.726 415.367 923.468 418.204C994.211 421.041 1063.48 439.288 1126.45 471.669L1096.28 530.124C1041.83 502.14 981.932 486.378 920.763 483.936C859.594 481.494 798.629 492.432 742.121 515.986C685.613 539.54 634.923 575.144 593.587 620.312C552.251 665.481 521.265 719.127 502.791 777.508V777.508Z" fill="url(#paint4_linear_232:41)"/>
<path d="M1296.17 1377.35L1165.41 1234.79L1189.41 1212.51C1235.44 1169.86 1271.34 1117.45 1294.49 1059.12C1317.63 1000.79 1327.43 938.016 1323.17 875.403C1318.91 812.79 1300.69 751.925 1269.85 697.273C1239.01 642.62 1196.33 595.564 1144.95 559.557L1182.67 505.706C1239.78 545.76 1287.61 597.638 1322.9 657.818C1358.2 717.998 1380.13 785.07 1387.22 854.481C1394.31 923.891 1386.38 994.014 1363.98 1060.09C1341.57 1126.16 1305.22 1186.64 1257.38 1237.42L1299.3 1283.21C1333.88 1247.22 1363.39 1206.67 1386.99 1162.68L1444.53 1193.84C1412.27 1253.99 1370.21 1308.34 1320.09 1354.66L1296.17 1377.35Z" fill="url(#paint5_linear_232:41)"/>
<path d="M1467.21 1147.88L1406.88 1121.74C1430.54 1067.12 1445.09 1008.99 1449.95 949.663L1515.7 955.089C1510.2 1021.58 1493.82 1086.71 1467.21 1147.88Z" fill="url(#paint6_linear_232:41)"/>
<path d="M903.799 1641.26V1575.48C1081.77 1575.31 1252.4 1504.51 1378.25 1378.63C1504.09 1252.75 1574.87 1082.06 1575.04 904.035C1575.11 848.548 1567.08 793.347 1551.21 740.181L1542.99 708.61L1726.44 657.39L1734.66 689.536C1754.16 759.368 1764.06 831.531 1764.08 904.035C1764.16 991.762 1750.83 1078.99 1724.55 1162.68L1661.84 1142.95C1686.12 1065.64 1698.43 985.07 1698.33 904.035C1698.48 848.408 1692.16 792.951 1679.51 738.783L1622.8 754.568C1635.02 803.443 1641.06 853.656 1640.8 904.035C1640.6 1099.5 1562.89 1286.9 1424.72 1425.11C1286.55 1563.33 1099.2 1641.06 903.799 1641.26Z" fill="url(#paint7_linear_232:41)"/>
<path d="M1245.22 1694.12L1219.16 1633.77C1405.18 1553.52 1553.45 1405.12 1633.56 1219L1693.89 1245.06C1607.19 1446.6 1446.65 1607.29 1245.22 1694.12V1694.12Z" fill="url(#paint8_linear_232:41)"/>
<path d="M903.798 1764.58C748.999 1764.62 597.055 1722.89 463.979 1643.78C330.902 1564.68 221.621 1451.13 147.651 1315.11L205.184 1283.62C295.037 1448.53 440.284 1576.35 615.249 1644.49C790.214 1712.63 983.627 1716.7 1161.3 1655.97L1183.24 1717.96C1093.32 1748.86 998.884 1764.62 903.798 1764.58V1764.58Z" fill="url(#paint9_linear_232:41)"/>
<path d="M120.529 1260.52C43.6714 1091.13 23.6813 901.406 63.5471 719.71C103.413 538.015 200.993 374.105 341.702 252.48L384.687 302.303C254.828 414.61 164.774 565.927 127.977 733.653C91.1802 901.379 109.615 1076.51 180.528 1232.89L120.529 1260.52Z" fill="url(#paint10_linear_232:41)"/>
<path d="M435.318 262.758L396.524 209.647C430.476 184.834 466.186 162.523 503.371 142.888L534.11 201.014C499.715 219.153 466.696 239.789 435.318 262.758V262.758Z" fill="url(#paint11_linear_232:41)"/>
<path d="M1561.32 458.019C1458.84 307.092 1307.63 195.972 1133.02 143.272C958.401 90.5716 770.984 99.4928 602.16 168.541L577.503 107.702C760.305 32.8495 963.274 23.131 1152.39 80.1754C1341.5 137.22 1505.26 257.56 1616.22 421.023L1561.32 458.019Z" fill="url(#paint12_linear_232:41)"/>
<path d="M1541.02 687.318L1529.84 658.296C1483.49 537.032 1402.7 431.978 1297.41 356.074L1335.79 302.717C1442.92 379.901 1527.13 484.685 1579.48 605.925L1633.32 588.66C1620.16 558.223 1605.09 528.648 1588.19 500.115L1644.82 466.571C1669.47 508.322 1690.56 552.078 1707.86 597.375L1720.27 630.261L1541.02 687.318Z" fill="url(#paint13_linear_232:41)"/>
<path d="M1251.38 325.818C1194.6 291.741 1132.96 266.513 1068.59 251.002L1084.04 187.121C1154.86 204.167 1222.67 231.889 1285.16 269.336L1251.38 325.818Z" fill="url(#paint14_linear_232:41)"/>
<path d="M831.719 1637.8C658.65 1620.72 497.183 1543.01 375.846 1418.38C254.508 1293.76 181.107 1130.25 168.611 956.732L234.363 952.046C245.146 1110.24 311.767 1259.46 422.34 1373.08C532.913 1486.7 680.245 1557.33 838.048 1572.36L831.719 1637.8Z" fill="url(#paint15_linear_232:41)"/>
<path d="M232.55 904.034H166.798C166.772 837.353 175.785 770.976 193.592 706.718L256.961 724.312C240.762 782.845 232.551 843.3 232.55 904.034Z" fill="url(#paint16_linear_232:41)"/>
<path d="M279.158 658.541L217.926 634.453C266.336 510.895 347.229 402.722 452.048 321.373C556.868 240.025 681.717 188.526 813.392 172.323L848.241 168.13L858.843 356.32L828.269 360.019C731.365 371.815 639.562 410.009 562.877 470.434L522.194 418.967C600.091 357.513 692.062 316.43 789.804 299.427L786.598 243.028C673.509 262.982 567.445 311.678 478.585 384.44C389.725 457.202 321.053 551.589 279.158 658.541V658.541Z" fill="url(#paint17_linear_232:41)"/>
<path d="M446.984 1314.12C341.239 1195.32 285.206 1040.4 290.484 881.427C295.763 722.45 361.948 571.59 475.34 460.073L521.202 507.265C419.89 606.931 360.761 741.743 356.049 883.804C351.337 1025.87 401.403 1164.3 495.887 1270.47L446.984 1314.12Z" fill="url(#paint18_linear_232:41)"/>
<path d="M903.8 1518.02C743.643 1518.37 589.764 1455.74 475.344 1343.64L521.288 1296.53C605.584 1378.73 714.096 1431.61 830.766 1447.33C947.437 1463.06 1066.07 1440.8 1169.11 1383.84L1134.67 1335.58C1073.15 1369.25 1004.48 1387.77 934.375 1389.6L931.252 1323.83C1007.28 1320.21 1069.08 1301.22 1125.8 1264.06L1152.18 1246.71L1263.38 1402.92L1234.29 1421.58C1135.62 1484.7 1020.92 1518.17 903.8 1518.02V1518.02Z" fill="url(#paint19_linear_232:41)"/>
<path d="M903.799 1390.25C823.519 1390.34 744.462 1370.57 673.668 1332.7L638.49 1313.79L755.857 1171.07L778.131 1179.78C818.464 1194.42 860.905 1202.42 903.799 1203.46C1059.3 1203.46 1183.66 1093.7 1201.08 947.691L1148.89 951.309C1133.93 1067.15 1033.41 1151.17 903.799 1151.17V1085.4C1008.84 1085.4 1085.11 1016.01 1085.11 920.478V889.812L1268.89 876.986V912.257C1268.89 1112.45 1108.53 1269.23 903.799 1269.23C860.768 1268.55 818.058 1261.68 776.98 1248.84L741.638 1292.09C793.028 1313.48 848.139 1324.49 903.799 1324.48V1390.25Z" fill="url(#paint20_linear_232:41)"/>
<path d="M1342.12 470.105C1259.19 385.159 1152.78 326.928 1036.54 302.88L1023.64 367.172C1271.03 418.063 1451.84 635.604 1451.84 904.035H1517.6C1518.52 741.919 1455.46 585.985 1342.12 470.105V470.105Z" fill="url(#paint21_linear_232:41)"/>
<path d="M1007.2 297.537C986.557 294.263 965.762 292.068 944.896 290.959V233.409C968.649 234.574 992.326 236.989 1015.83 240.644L1025.93 175.694C988.248 169.803 950.163 166.834 912.02 166.815H879.144V355.909H912.02C940.975 355.919 969.885 358.201 998.483 362.733L1007.2 297.537Z" fill="url(#paint22_linear_232:41)"/>
<defs>
<linearGradient id="paint0_linear_232:41" x1="137717" y1="131847" x2="154400" y2="131847" gradientUnits="userSpaceOnUse">
<stop offset="0.02" stop-color="#EF4860"/>
<stop offset="1" stop-color="#DD1047"/>
</linearGradient>
<linearGradient id="paint1_linear_232:41" x1="217692" y1="80549.8" x2="258722" y2="80549.8" gradientUnits="userSpaceOnUse">
<stop stop-color="#379278"/>
<stop offset="1" stop-color="#1E514D"/>
</linearGradient>
<linearGradient id="paint2_linear_232:41" x1="96374.7" y1="181366" x2="105728" y2="181366" gradientUnits="userSpaceOnUse">
<stop stop-color="#2C1E3B"/>
<stop offset="1" stop-color="#18121F"/>
</linearGradient>
<linearGradient id="paint3_linear_232:41" x1="29918" y1="68264.1" x2="30829.4" y2="68264.1" gradientUnits="userSpaceOnUse">
<stop stop-color="#FDD259"/>
<stop offset="1" stop-color="#FD8C28"/>
</linearGradient>
<linearGradient id="paint4_linear_232:41" x1="236262" y1="83050.5" x2="293581" y2="83050.5" gradientUnits="userSpaceOnUse">
<stop stop-color="#379278"/>
<stop offset="1" stop-color="#1E514D"/>
</linearGradient>
<linearGradient id="paint5_linear_232:41" x1="129768" y1="237209" x2="140699" y2="237209" gradientUnits="userSpaceOnUse">
<stop stop-color="#2C1E3B"/>
<stop offset="1" stop-color="#18121F"/>
</linearGradient>
<linearGradient id="paint6_linear_232:41" x1="51595.6" y1="57365.1" x2="53033.1" y2="57365.1" gradientUnits="userSpaceOnUse">
<stop offset="0.02" stop-color="#EF4860"/>
<stop offset="1" stop-color="#DD1047"/>
</linearGradient>
<linearGradient id="paint7_linear_232:41" x1="345017" y1="292708" x2="435062" y2="292708" gradientUnits="userSpaceOnUse">
<stop stop-color="#379278"/>
<stop offset="1" stop-color="#1E514D"/>
</linearGradient>
<linearGradient id="paint8_linear_232:41" x1="209326" y1="160009" x2="236746" y2="160009" gradientUnits="userSpaceOnUse">
<stop stop-color="#7CEEE2"/>
<stop offset="1" stop-color="#64A2E2"/>
</linearGradient>
<linearGradient id="paint9_linear_232:41" x1="319131" y1="165978" x2="449564" y2="165978" gradientUnits="userSpaceOnUse">
<stop offset="0.02" stop-color="#EF4860"/>
<stop offset="1" stop-color="#DD1047"/>
</linearGradient>
<linearGradient id="paint10_linear_232:41" x1="100800" y1="251304" x2="114962" y2="251304" gradientUnits="userSpaceOnUse">
<stop stop-color="#379278"/>
<stop offset="1" stop-color="#1E514D"/>
</linearGradient>
<linearGradient id="paint11_linear_232:41" x1="46932.2" y1="21918.3" x2="49232.7" y2="21918.3" gradientUnits="userSpaceOnUse">
<stop stop-color="#2C1E3B"/>
<stop offset="1" stop-color="#18121F"/>
</linearGradient>
<linearGradient id="paint12_linear_232:41" x1="374785" y1="77784" x2="506058" y2="77784" gradientUnits="userSpaceOnUse">
<stop stop-color="#379278"/>
<stop offset="1" stop-color="#1E514D"/>
</linearGradient>
<linearGradient id="paint13_linear_232:41" x1="190695" y1="83857.3" x2="212452" y2="83857.3" gradientUnits="userSpaceOnUse">
<stop stop-color="#FDD259"/>
<stop offset="1" stop-color="#FD8C28"/>
</linearGradient>
<linearGradient id="paint14_linear_232:41" x1="92038.9" y1="26294" x2="97745.5" y2="26294" gradientUnits="userSpaceOnUse">
<stop stop-color="#2C1E3B"/>
<stop offset="1" stop-color="#18121F"/>
</linearGradient>
<linearGradient id="paint15_linear_232:41" x1="208062" y1="216656" x2="262588" y2="216656" gradientUnits="userSpaceOnUse">
<stop stop-color="#2C1E3B"/>
<stop offset="1" stop-color="#18121F"/>
</linearGradient>
<linearGradient id="paint16_linear_232:41" x1="28146.9" y1="51018.3" x2="29136" y2="51018.3" gradientUnits="userSpaceOnUse">
<stop stop-color="#7CEEE2"/>
<stop offset="1" stop-color="#64A2E2"/>
</linearGradient>
<linearGradient id="paint17_linear_232:41" x1="203075" y1="101835" x2="253079" y2="101835" gradientUnits="userSpaceOnUse">
<stop stop-color="#379278"/>
<stop offset="1" stop-color="#1E514D"/>
</linearGradient>
<linearGradient id="paint18_linear_232:41" x1="75458.3" y1="226714" x2="81958" y2="226714" gradientUnits="userSpaceOnUse">
<stop stop-color="#379278"/>
<stop offset="1" stop-color="#1E514D"/>
</linearGradient>
<linearGradient id="paint19_linear_232:41" x1="274610" y1="89471.4" x2="350167" y2="89471.4" gradientUnits="userSpaceOnUse">
<stop stop-color="#FDD259"/>
<stop offset="1" stop-color="#FD8C28"/>
</linearGradient>
<linearGradient id="paint20_linear_232:41" x1="232473" y1="152255" x2="280799" y2="152255" gradientUnits="userSpaceOnUse">
<stop stop-color="#379278"/>
<stop offset="1" stop-color="#1E514D"/>
</linearGradient>
<linearGradient id="paint21_linear_232:41" x1="205814" y1="138833" x2="235502" y2="138833" gradientUnits="userSpaceOnUse">
<stop stop-color="#379278"/>
<stop offset="1" stop-color="#1E514D"/>
</linearGradient>
<linearGradient id="paint22_linear_232:41" x1="59155.2" y1="37242.3" x2="61776.9" y2="37242.3" gradientUnits="userSpaceOnUse">
<stop stop-color="#7CEEE2"/>
<stop offset="1" stop-color="#64A2E2"/>
</linearGradient>
</defs>
</svg>
