<svg width="122" height="122" viewBox="0 0 122 122" fill="none" xmlns="http://www.w3.org/2000/svg">
<g clip-path="url(#clip0_232:50)">
<path d="M33.5178 44.6913L13.7734 64.4417L18.0849 68.7545L33.5178 53.3093L86.1468 105.947L136.795 55.2828L132.484 50.9776L86.1468 97.3286L33.5178 44.6913Z" fill="url(#paint0_linear_232:50)"/>
<path d="M10.3076 4.74851L5.99609 9.05366L86.4058 89.4878L119.61 56.2733L98.967 35.6161L109.212 25.3599L121.02 37.1706L140.886 17.2982L136.574 12.9855L121.02 28.545L109.212 16.742L90.3441 35.6161L110.995 56.2733L86.4058 80.8622L10.3076 4.74851Z" fill="url(#paint1_linear_232:50)"/>
<path d="M33.9448 60.7536L8.10645 86.5998L12.4179 90.9126L33.9448 69.3791L72.1615 107.6L76.4654 103.295L33.9448 60.7536Z" fill="url(#paint2_linear_232:50)"/>
<path d="M-6.76326 3.22466L-11.0747 7.52981L21.2309 39.8452L-3.5487 64.6323L5.06663 73.2502L-10.3587 88.6726L-55.2178 43.7922L-59.5293 48.105L-10.3587 97.2905L13.682 73.2502L5.06663 64.6323L29.8462 39.8452L-6.76326 3.22466Z" fill="url(#paint3_linear_232:50)"/>
<path d="M-50.7157 64.6249L-55.0195 68.93L-10.3585 113.612L8.11385 95.142L3.80237 90.8292L-10.3585 104.994L-50.7157 64.6249Z" fill="url(#paint4_linear_232:50)"/>
<path d="M-16.5974 4.69522L-43.228 31.3339L-23.7959 50.7719L-2.30712 30.0385L7.70982 40.0585L-22.1582 69.166L-9.26946 82.0586L-1.8196 74.6065L-6.13108 70.3013L-9.26946 73.4407L-13.4895 69.2269L16.3785 40.1118L-2.23095 21.4968L-23.7198 42.2225L-34.6127 31.3339L-12.2936 9.008L-16.5974 4.69522Z" fill="url(#paint5_linear_232:50)"/>
<path d="M-54.8827 27.4022L-59.1865 31.7074L-24.3596 66.5449L2.08821 40.0891L-2.22327 35.7764L-24.3596 57.927L-54.8827 27.4022Z" fill="url(#paint6_linear_232:50)"/>
<path d="M132.971 0.191691L121.08 12.0861L110.065 1.06796L61.7632 49.3848L86.1771 73.8062L104.375 55.6026L87.1826 38.4048L82.8711 42.7099L95.7598 55.6026L86.1771 65.1882L70.3785 49.3848L110.065 9.6859L121.08 20.7041L137.283 4.49685L132.971 0.191691Z" fill="url(#paint7_linear_232:50)"/>
<path d="M137.618 29.2159L122.757 44.082L109.761 31.0751L105.45 35.3879L122.757 52.7L141.93 33.5286L137.618 29.2159Z" fill="url(#paint8_linear_232:50)"/>
<path d="M68.3988 2.95755L64.0873 7.27033L75.7877 18.9743L58.199 36.5759L25.5963 3.96336L21.2925 8.27612L58.199 45.1938L84.4106 18.9743L68.3988 2.95755Z" fill="url(#paint9_linear_232:50)"/>
<path d="M87.2876 17.1424L82.9785 12.832L91.6882 4.11966L95.9973 8.43005L87.2876 17.1424Z" fill="url(#paint10_linear_232:50)"/>
<path d="M54.313 4.10849L50.0015 8.42127L61.1458 19.5613L58.3655 22.3349L41.0815 5.04573L36.77 9.35088L58.3655 30.9529L69.7612 19.5613L54.313 4.10849Z" fill="url(#paint11_linear_232:50)"/>
<path d="M99.522 107.745L95.2129 103.435L133.251 65.3851L137.56 69.6955L99.522 107.745Z" fill="url(#paint12_linear_232:50)"/>
<path d="M92.4841 107.09L86.2225 113.345L80.1743 107.295L75.8628 111.608L86.2225 121.971L96.7879 111.395L92.4841 107.09Z" fill="url(#paint13_linear_232:50)"/>
<path d="M108.239 115.603L103.93 111.293L133.678 81.5349L137.988 85.8453L108.239 115.603Z" fill="url(#paint14_linear_232:50)"/>
<path d="M8.61816 110.849L4.30908 106.538L34.268 76.5703L38.577 80.8807L8.61816 110.849Z" fill="url(#paint15_linear_232:50)"/>
<path d="M41.4245 86.0895L17.7495 109.772L22.0534 114.077L41.4245 94.7074L62.9362 116.226L67.2401 111.913L41.4245 86.0895Z" fill="url(#paint16_linear_232:50)"/>
<path d="M-3.05762 122L-7.3667 117.69L-0.967718 111.289L3.34136 115.599L-3.05762 122Z" fill="url(#paint17_linear_232:50)"/>
<path d="M44.8358 115.589L36.9448 107.695L41.2539 103.385L49.1449 111.278L44.8358 115.589Z" fill="url(#paint18_linear_232:50)"/>
<path d="M125.845 113.178L121.536 108.868L131.242 99.1585L135.551 103.469L125.845 113.178Z" fill="url(#paint19_linear_232:50)"/>
<path d="M85.691 60.1108L75.5 49.9167L79.8091 45.6064L90 55.8004L85.691 60.1108Z" fill="url(#paint20_linear_232:50)"/>
</g>
<defs>
<linearGradient id="paint0_linear_232:50" x1="13.7734" y1="75.3151" x2="136.795" y2="75.3151" gradientUnits="userSpaceOnUse">
<stop stop-color="#2C1E3B"/>
<stop offset="1" stop-color="#18121F"/>
</linearGradient>
<linearGradient id="paint1_linear_232:50" x1="5.99609" y1="47.1143" x2="140.886" y2="47.1143" gradientUnits="userSpaceOnUse">
<stop stop-color="#379278"/>
<stop offset="1" stop-color="#1E514D"/>
</linearGradient>
<linearGradient id="paint2_linear_232:50" x1="8.10645" y1="84.1767" x2="76.4654" y2="84.1767" gradientUnits="userSpaceOnUse">
<stop stop-color="#FDD259"/>
<stop offset="1" stop-color="#FD8C28"/>
</linearGradient>
<linearGradient id="paint3_linear_232:50" x1="1651.12" y1="-35022.2" x2="12137.5" y2="-35022.2" gradientUnits="userSpaceOnUse">
<stop stop-color="#379278"/>
<stop offset="1" stop-color="#1E514D"/>
</linearGradient>
<linearGradient id="paint4_linear_232:50" x1="1527.1" y1="-15677.5" x2="6759.6" y2="-15677.5" gradientUnits="userSpaceOnUse">
<stop stop-color="#379278"/>
<stop offset="1" stop-color="#1E514D"/>
</linearGradient>
<linearGradient id="paint5_linear_232:50" x1="-43.228" y1="43.3807" x2="16.3785" y2="43.3807" gradientUnits="userSpaceOnUse">
<stop offset="0.02" stop-color="#EF4860"/>
<stop offset="1" stop-color="#DD1047"/>
</linearGradient>
<linearGradient id="paint6_linear_232:50" x1="1141.19" y1="-14716.5" x2="6070.12" y2="-14716.5" gradientUnits="userSpaceOnUse">
<stop stop-color="#379278"/>
<stop offset="1" stop-color="#1E514D"/>
</linearGradient>
<linearGradient id="paint7_linear_232:50" x1="13532.1" y1="-28691.8" x2="21019.1" y2="-28691.8" gradientUnits="userSpaceOnUse">
<stop offset="0.02" stop-color="#EF4860"/>
<stop offset="1" stop-color="#DD1047"/>
</linearGradient>
<linearGradient id="paint8_linear_232:50" x1="8704.5" y1="-9001.83" x2="10451.5" y2="-9001.83" gradientUnits="userSpaceOnUse">
<stop stop-color="#7CEEE2"/>
<stop offset="1" stop-color="#64A2E2"/>
</linearGradient>
<linearGradient id="paint9_linear_232:50" x1="7926.21" y1="-17175.4" x2="13156.2" y2="-17175.4" gradientUnits="userSpaceOnUse">
<stop stop-color="#379278"/>
<stop offset="1" stop-color="#1E514D"/>
</linearGradient>
<linearGradient id="paint10_linear_232:50" x1="1343.13" y1="-5224.25" x2="1447.27" y2="-5224.25" gradientUnits="userSpaceOnUse">
<stop stop-color="#2C1E3B"/>
<stop offset="1" stop-color="#18121F"/>
</linearGradient>
<linearGradient id="paint11_linear_232:50" x1="4838.96" y1="-11144.4" x2="6267.81" y2="-11144.4" gradientUnits="userSpaceOnUse">
<stop stop-color="#FDD259"/>
<stop offset="1" stop-color="#FD8C28"/>
</linearGradient>
<linearGradient id="paint12_linear_232:50" x1="1467.84" y1="-17413.2" x2="1806.66" y2="-17413.2" gradientUnits="userSpaceOnUse">
<stop stop-color="#FDD259"/>
<stop offset="1" stop-color="#FD8C28"/>
</linearGradient>
<linearGradient id="paint13_linear_232:50" x1="4195.6" y1="-4178.9" x2="4770.41" y2="-4178.9" gradientUnits="userSpaceOnUse">
<stop offset="0.02" stop-color="#EF4860"/>
<stop offset="1" stop-color="#DD1047"/>
</linearGradient>
<linearGradient id="paint14_linear_232:50" x1="1542.19" y1="-12924.3" x2="1814.65" y2="-12924.3" gradientUnits="userSpaceOnUse">
<stop stop-color="#379278"/>
<stop offset="1" stop-color="#1E514D"/>
</linearGradient>
<linearGradient id="paint15_linear_232:50" x1="645.772" y1="-13291.5" x2="919.939" y2="-13291.5" gradientUnits="userSpaceOnUse">
<stop stop-color="#2C1E3B"/>
<stop offset="1" stop-color="#18121F"/>
</linearGradient>
<linearGradient id="paint16_linear_232:50" x1="5985.81" y1="-9122.3" x2="9201.22" y2="-9122.3" gradientUnits="userSpaceOnUse">
<stop stop-color="#379278"/>
<stop offset="1" stop-color="#1E514D"/>
</linearGradient>
<linearGradient id="paint17_linear_232:50" x1="528.962" y1="-2469.77" x2="614.583" y2="-2469.77" gradientUnits="userSpaceOnUse">
<stop stop-color="#379278"/>
<stop offset="1" stop-color="#1E514D"/>
</linearGradient>
<linearGradient id="paint18_linear_232:50" x1="1664.55" y1="-1689.37" x2="1843.33" y2="-1689.37" gradientUnits="userSpaceOnUse">
<stop stop-color="#7CEEE2"/>
<stop offset="1" stop-color="#64A2E2"/>
</linearGradient>
<linearGradient id="paint19_linear_232:50" x1="1690.67" y1="-4005.93" x2="1802.74" y2="-4005.93" gradientUnits="userSpaceOnUse">
<stop stop-color="#2C1E3B"/>
<stop offset="1" stop-color="#18121F"/>
</linearGradient>
<linearGradient id="paint20_linear_232:50" x1="2906.27" y1="-2198.98" x2="3180.53" y2="-2198.98" gradientUnits="userSpaceOnUse">
<stop stop-color="#2C1E3B"/>
<stop offset="1" stop-color="#18121F"/>
</linearGradient>
<clipPath id="clip0_232:50">
<rect width="121.71" height="121.71" rx="60" fill="white"/>
</clipPath>
</defs>
</svg>
