<svg width="1000" height="1000" viewBox="0 0 1000 1000" fill="none" xmlns="http://www.w3.org/2000/svg">
<path d="M478.482 641.977L450.835 634.908C419.095 623.397 392.428 601.063 375.521 571.831C358.613 542.599 352.549 508.34 358.393 475.078C364.237 441.816 381.616 411.68 407.474 389.966C433.333 368.252 466.015 356.352 499.777 356.357V394.567C476.508 394.559 453.892 402.259 435.459 416.465C417.026 430.67 403.815 450.581 397.887 473.089C391.959 495.597 393.648 519.434 402.692 540.881C411.735 562.327 427.623 580.174 447.875 591.635L453.843 554.715C441.409 544.293 432.879 529.957 429.651 514.054C426.424 498.151 428.689 481.623 436.076 467.175C443.463 452.728 455.534 441.217 470.314 434.527C485.094 427.837 501.706 426.364 517.432 430.35C533.158 434.335 547.065 443.543 556.877 456.466C566.69 469.388 571.825 485.26 571.444 501.483C571.062 517.706 565.187 533.319 554.778 545.766C544.369 558.213 530.045 566.757 514.149 569.999L506.51 532.553C514.201 530.971 521.09 526.73 525.968 520.574C530.847 514.418 533.402 506.741 533.187 498.889C532.972 491.037 530 483.511 524.792 477.632C519.585 471.753 512.474 467.896 504.707 466.737C496.94 465.578 489.013 467.192 482.317 471.295C475.621 475.398 470.583 481.728 468.086 489.176C465.59 496.623 465.795 504.712 468.665 512.024C471.534 519.336 476.886 525.403 483.781 529.162L495.575 535.658L478.482 641.977Z" fill="url(#paint0_linear_231:2)"/>
<path d="M605.157 479.346L600.382 464.109C594.941 446.97 584.913 431.648 571.388 419.802C557.862 407.956 541.354 400.039 523.651 396.907L531.148 359.462C552.945 363.424 573.456 372.616 590.92 386.251C608.385 399.886 622.282 417.556 631.419 437.745L662.646 434.019C647.796 397.672 604.823 325.98 499.777 325.98C462.651 325.873 426.481 337.749 396.641 359.844L374.009 329.085C410.393 302.131 454.502 287.642 499.777 287.77C668.614 287.77 706.288 444.384 706.622 446.007L711.397 466.689L605.157 479.346Z" fill="url(#paint1_linear_231:2)"/>
<path d="M328.887 725.61L314.944 713.526C283.755 686.402 258.842 652.811 241.937 615.087L276.793 599.516C288.918 626.407 305.751 650.913 326.499 671.877L348.368 648.33C328.384 627.942 312.72 603.729 302.312 577.142C291.904 550.555 286.966 522.14 287.796 493.599C288.625 465.059 295.203 436.979 307.137 411.041C319.071 385.104 336.116 361.842 357.249 342.649L382.937 370.925C364.582 387.594 350.001 407.995 340.172 430.76C330.342 453.526 325.491 478.131 325.943 502.925C326.395 527.72 332.14 552.131 342.793 574.523C353.447 596.915 368.762 616.771 387.712 632.759L402.992 645.703L328.887 725.61Z" fill="url(#paint2_linear_231:2)"/>
<path d="M231.385 588.006C216.145 541.197 213.299 491.236 223.125 442.998L260.559 450.688C252.011 492.485 254.463 535.787 267.674 576.351L231.385 588.006Z" fill="url(#paint3_linear_231:2)"/>
<path d="M266.813 426.425L230.381 414.914C242.79 375.687 263.606 339.642 291.379 309.294C319.151 278.946 353.21 255.026 391.177 239.204C429.145 223.382 470.108 216.039 511.205 217.687C552.303 219.336 592.546 229.936 629.126 248.748L611.603 282.707C579.969 266.45 545.17 257.293 509.634 255.874C474.098 254.456 438.68 260.81 405.852 274.494C373.024 288.177 343.575 308.861 319.561 335.102C295.547 361.342 277.546 392.508 266.813 426.425V426.425Z" fill="url(#paint4_linear_231:2)"/>
<path d="M727.727 774.901L651.76 692.08L665.702 679.137C692.443 654.362 713.301 623.915 726.747 590.027C740.193 556.14 745.886 519.671 743.409 483.296C740.932 446.922 730.348 411.562 712.432 379.812C694.516 348.061 669.723 320.725 639.87 299.806L661.787 268.522C694.966 291.791 722.751 321.929 743.255 356.891C763.76 391.852 776.503 430.818 780.62 471.142C784.738 511.466 780.132 552.204 767.117 590.59C754.102 628.975 732.981 664.11 705.19 693.609L729.541 720.213C749.633 699.303 766.774 675.745 780.489 650.193L813.912 668.295C795.171 703.236 770.739 734.81 741.622 761.718L727.727 774.901Z" fill="url(#paint5_linear_231:2)"/>
<path d="M827.09 641.595L792.042 626.407C805.787 594.676 814.239 560.905 817.063 526.439L855.261 529.592C852.064 568.217 842.547 606.055 827.09 641.595Z" fill="url(#paint6_linear_231:2)"/>
<path d="M499.777 928.219V890.008C603.169 889.907 702.298 848.777 775.408 775.646C848.517 702.514 889.635 603.355 889.736 499.931C889.776 467.696 885.111 435.628 875.889 404.74L871.114 386.4L977.688 356.643L982.462 375.319C993.791 415.887 999.542 457.81 999.556 499.931C999.602 550.896 991.856 601.569 976.589 650.192L940.158 638.729C954.265 593.817 961.414 547.008 961.358 499.931C961.444 467.615 957.775 435.397 950.424 403.928L917.477 413.099C924.576 441.492 928.089 470.664 927.934 499.931C927.82 613.485 882.675 722.356 802.404 802.65C722.134 882.945 613.296 928.105 499.777 928.219Z" fill="url(#paint7_linear_231:2)"/>
<path d="M698.122 958.93L682.986 923.872C791.05 877.249 877.187 791.035 923.732 682.91L958.779 698.051C908.412 815.134 815.142 908.484 698.122 958.93V958.93Z" fill="url(#paint8_linear_231:2)"/>
<path d="M499.777 999.863C409.847 999.886 321.575 975.642 244.265 929.687C166.954 883.732 103.467 817.768 60.4946 738.745L93.9183 720.452C146.118 816.256 230.499 890.515 332.145 930.1C433.79 969.685 546.154 972.047 649.372 936.768L662.121 972.781C609.878 990.734 555.017 999.885 499.777 999.863V999.863Z" fill="url(#paint9_linear_231:2)"/>
<path d="M44.7375 707.03C0.0870879 608.623 -11.5261 498.405 11.6338 392.849C34.7938 287.293 91.4829 192.07 173.228 121.412L198.2 150.356C122.758 215.601 70.4415 303.509 49.0644 400.949C27.6873 498.389 38.3969 600.132 79.5936 690.982L44.7375 707.03Z" fill="url(#paint10_linear_231:2)"/>
<path d="M227.613 127.383L205.076 96.5282C224.8 82.1135 245.546 69.1516 267.148 57.745L285.006 91.5132C265.024 102.051 245.842 114.039 227.613 127.383V127.383Z" fill="url(#paint11_linear_231:2)"/>
<path d="M881.762 240.819C822.229 153.138 734.385 88.5829 632.942 57.9669C531.499 27.3509 422.619 32.5336 324.541 72.647L310.217 37.3027C416.415 -6.1827 534.329 -11.8287 644.194 21.3112C754.059 54.4512 849.196 124.363 913.658 219.326L881.762 240.819Z" fill="url(#paint12_linear_231:2)"/>
<path d="M869.968 374.029L863.475 357.169C836.549 286.721 789.611 225.69 728.443 181.593L750.741 150.595C812.978 195.436 861.903 256.309 892.314 326.744L923.59 316.714C915.945 299.031 907.19 281.85 897.376 265.274L930.274 245.786C944.596 270.041 956.847 295.462 966.897 321.777L974.107 340.882L869.968 374.029Z" fill="url(#paint13_linear_231:2)"/>
<path d="M701.703 164.017C668.717 144.22 632.909 129.564 595.511 120.553L604.488 83.4412C645.63 93.3436 685.027 109.449 721.327 131.204L701.703 164.017Z" fill="url(#paint14_linear_231:2)"/>
<path d="M457.902 926.213C357.358 916.291 263.554 871.142 193.063 798.742C122.572 726.341 79.93 631.349 72.6705 530.547L110.869 527.825C117.133 619.73 155.837 706.419 220.074 772.425C284.311 838.432 369.903 879.461 461.579 888.194L457.902 926.213Z" fill="url(#paint15_linear_231:2)"/>
<path d="M109.818 499.931H71.6191C71.6037 461.193 76.8401 422.631 87.1851 385.301L123.999 395.522C114.588 429.526 109.818 464.648 109.818 499.931Z" fill="url(#paint16_linear_231:2)"/>
<path d="M136.891 357.312L101.319 343.318C129.442 271.537 176.437 208.694 237.332 161.434C298.226 114.175 370.758 84.2568 447.254 74.8438L467.499 72.408L473.659 181.737L455.896 183.886C399.6 190.739 346.267 212.928 301.718 248.031L278.082 218.132C323.337 182.43 376.767 158.563 433.55 148.685L431.688 115.92C365.989 127.512 304.371 155.802 252.748 198.073C201.125 240.344 161.23 295.178 136.891 357.312V357.312Z" fill="url(#paint17_linear_231:2)"/>
<path d="M234.393 738.171C172.961 669.157 140.408 579.156 143.475 486.798C146.541 394.441 184.991 306.799 250.866 242.013L277.51 269.429C218.653 327.33 184.302 405.649 181.564 488.179C178.827 570.709 207.913 651.133 262.803 712.809L234.393 738.171Z" fill="url(#paint18_linear_231:2)"/>
<path d="M499.777 856.622C406.733 856.825 317.337 820.442 250.866 755.318L277.557 727.95C326.528 775.706 389.568 806.425 457.348 815.56C525.127 824.695 594.046 811.762 653.907 778.674L633.901 750.637C598.158 770.198 558.268 780.955 517.539 782.017L515.724 743.807C559.891 741.706 595.798 730.673 628.744 709.084L644.071 699.006L708.675 789.755L691.772 800.597C634.453 837.269 567.817 856.714 499.777 856.622V856.622Z" fill="url(#paint19_linear_231:2)"/>
<path d="M499.777 782.399C453.138 782.451 407.21 770.965 366.082 748.966L345.646 737.98L413.831 655.064L426.77 660.127C450.202 668.632 474.858 673.278 499.777 673.883C590.117 673.883 662.36 610.12 672.482 525.293L642.162 527.395C633.472 594.692 575.076 643.506 499.777 643.506V605.296C560.799 605.296 605.11 564.984 605.11 509.484V491.668L711.874 484.217V504.707C711.874 621.009 618.718 712.093 499.777 712.093C474.778 711.696 449.966 707.707 426.102 700.248L405.57 725.371C435.425 737.796 467.442 744.192 499.777 744.189V782.399Z" fill="url(#paint20_linear_231:2)"/>
<path d="M754.417 247.84C706.237 198.49 644.419 164.661 576.89 150.691L569.394 188.041C713.115 217.606 818.161 343.986 818.161 499.931H856.36C856.897 405.75 820.264 315.16 754.417 247.84V247.84Z" fill="url(#paint21_linear_231:2)"/>
<path d="M559.844 147.586C547.855 145.684 535.774 144.409 523.651 143.765V110.331C537.451 111.008 551.206 112.411 564.858 114.535L570.731 76.8022C548.837 73.3794 526.712 71.6548 504.552 71.6438H485.453V181.498H504.552C521.374 181.504 538.169 182.829 554.783 185.462L559.844 147.586Z" fill="url(#paint22_linear_231:2)"/>
<defs>
<linearGradient id="paint0_linear_231:2" x1="79981.3" y1="76571.3" x2="89673.4" y2="76571.3" gradientUnits="userSpaceOnUse">
<stop offset="0.02" stop-color="#EF4860"/>
<stop offset="1" stop-color="#DD1047"/>
</linearGradient>
<linearGradient id="paint1_linear_231:2" x1="126442" y1="46770" x2="150279" y2="46770" gradientUnits="userSpaceOnUse">
<stop stop-color="#379278"/>
<stop offset="1" stop-color="#1E514D"/>
</linearGradient>
<linearGradient id="paint2_linear_231:2" x1="55963.5" y1="105339" x2="61397.5" y2="105339" gradientUnits="userSpaceOnUse">
<stop stop-color="#2C1E3B"/>
<stop offset="1" stop-color="#18121F"/>
</linearGradient>
<linearGradient id="paint3_linear_231:2" x1="17355.6" y1="39632.7" x2="17885" y2="39632.7" gradientUnits="userSpaceOnUse">
<stop stop-color="#FDD259"/>
<stop offset="1" stop-color="#FD8C28"/>
</linearGradient>
<linearGradient id="paint4_linear_231:2" x1="137231" y1="48222.8" x2="170530" y2="48222.8" gradientUnits="userSpaceOnUse">
<stop stop-color="#379278"/>
<stop offset="1" stop-color="#1E514D"/>
</linearGradient>
<linearGradient id="paint5_linear_231:2" x1="75363" y1="137781" x2="81713.8" y2="137781" gradientUnits="userSpaceOnUse">
<stop stop-color="#2C1E3B"/>
<stop offset="1" stop-color="#18121F"/>
</linearGradient>
<linearGradient id="paint6_linear_231:2" x1="29949.1" y1="33300.9" x2="30784.2" y2="33300.9" gradientUnits="userSpaceOnUse">
<stop offset="0.02" stop-color="#EF4860"/>
<stop offset="1" stop-color="#DD1047"/>
</linearGradient>
<linearGradient id="paint7_linear_231:2" x1="200412" y1="170023" x2="252724" y2="170023" gradientUnits="userSpaceOnUse">
<stop stop-color="#379278"/>
<stop offset="1" stop-color="#1E514D"/>
</linearGradient>
<linearGradient id="paint8_linear_231:2" x1="121582" y1="92931.6" x2="137512" y2="92931.6" gradientUnits="userSpaceOnUse">
<stop stop-color="#7CEEE2"/>
<stop offset="1" stop-color="#64A2E2"/>
</linearGradient>
<linearGradient id="paint9_linear_231:2" x1="185373" y1="96399.2" x2="261148" y2="96399.2" gradientUnits="userSpaceOnUse">
<stop offset="0.02" stop-color="#EF4860"/>
<stop offset="1" stop-color="#DD1047"/>
</linearGradient>
<linearGradient id="paint10_linear_231:2" x1="58534.4" y1="145969" x2="66761.6" y2="145969" gradientUnits="userSpaceOnUse">
<stop stop-color="#379278"/>
<stop offset="1" stop-color="#1E514D"/>
</linearGradient>
<linearGradient id="paint11_linear_231:2" x1="27239.9" y1="12708.2" x2="28576.4" y2="12708.2" gradientUnits="userSpaceOnUse">
<stop stop-color="#2C1E3B"/>
<stop offset="1" stop-color="#18121F"/>
</linearGradient>
<linearGradient id="paint12_linear_231:2" x1="217706" y1="45163.2" x2="293969" y2="45163.2" gradientUnits="userSpaceOnUse">
<stop stop-color="#379278"/>
<stop offset="1" stop-color="#1E514D"/>
</linearGradient>
<linearGradient id="paint13_linear_231:2" x1="110759" y1="48691.5" x2="123398" y2="48691.5" gradientUnits="userSpaceOnUse">
<stop stop-color="#FDD259"/>
<stop offset="1" stop-color="#FD8C28"/>
</linearGradient>
<linearGradient id="paint14_linear_231:2" x1="53444.6" y1="15250.2" x2="56759.8" y2="15250.2" gradientUnits="userSpaceOnUse">
<stop stop-color="#2C1E3B"/>
<stop offset="1" stop-color="#18121F"/>
</linearGradient>
<linearGradient id="paint15_linear_231:2" x1="120848" y1="125841" x2="152525" y2="125841" gradientUnits="userSpaceOnUse">
<stop stop-color="#2C1E3B"/>
<stop offset="1" stop-color="#18121F"/>
</linearGradient>
<linearGradient id="paint16_linear_231:2" x1="16326.6" y1="29613.7" x2="16901.3" y2="29613.7" gradientUnits="userSpaceOnUse">
<stop stop-color="#7CEEE2"/>
<stop offset="1" stop-color="#64A2E2"/>
</linearGradient>
<linearGradient id="paint17_linear_231:2" x1="117951" y1="59135.9" x2="147001" y2="59135.9" gradientUnits="userSpaceOnUse">
<stop stop-color="#379278"/>
<stop offset="1" stop-color="#1E514D"/>
</linearGradient>
<linearGradient id="paint18_linear_231:2" x1="43812.1" y1="131684" x2="47588.1" y2="131684" gradientUnits="userSpaceOnUse">
<stop stop-color="#379278"/>
<stop offset="1" stop-color="#1E514D"/>
</linearGradient>
<linearGradient id="paint19_linear_231:2" x1="159509" y1="51953" x2="203404" y2="51953" gradientUnits="userSpaceOnUse">
<stop stop-color="#FDD259"/>
<stop offset="1" stop-color="#FD8C28"/>
</linearGradient>
<linearGradient id="paint20_linear_231:2" x1="135030" y1="88427.1" x2="163105" y2="88427.1" gradientUnits="userSpaceOnUse">
<stop stop-color="#379278"/>
<stop offset="1" stop-color="#1E514D"/>
</linearGradient>
<linearGradient id="paint21_linear_231:2" x1="119542" y1="80629.6" x2="136789" y2="80629.6" gradientUnits="userSpaceOnUse">
<stop stop-color="#379278"/>
<stop offset="1" stop-color="#1E514D"/>
</linearGradient>
<linearGradient id="paint22_linear_231:2" x1="34340.9" y1="21610.6" x2="35864" y2="21610.6" gradientUnits="userSpaceOnUse">
<stop stop-color="#7CEEE2"/>
<stop offset="1" stop-color="#64A2E2"/>
</linearGradient>
</defs>
</svg>
