<svg width="313" height="191" viewBox="0 0 313 191" fill="none" xmlns="http://www.w3.org/2000/svg">
<path fill-rule="evenodd" clip-rule="evenodd" d="M176.424 0C172.785 0 169.835 2.9497 169.835 6.58832V67.5303C169.835 69.7394 171.626 71.5303 173.835 71.5303H175.247C177.456 71.5303 179.247 69.7394 179.247 67.5303V13.4119C179.247 11.2027 181.038 9.41188 183.247 9.41188H299.484C301.693 9.41188 303.484 11.2027 303.484 13.4119V129.649C303.484 131.858 301.693 133.649 299.484 133.649H182.247C180.59 133.649 179.247 132.306 179.247 130.649V124.237C179.247 122.028 177.456 120.237 175.247 120.237H173.835C171.626 120.237 169.835 122.028 169.835 124.237V136.472C169.835 140.111 172.785 143.061 176.424 143.061H306.308C309.946 143.061 312.896 140.111 312.896 136.472V6.58831C312.896 2.94968 309.946 0 306.308 0H176.424ZM0.941188 61.6478C0.421384 61.6478 0 61.2264 0 60.7066V30.5133C0 29.9935 0.421384 29.5721 0.941188 29.5721H11.6557C14.2759 29.5721 16.5649 29.9938 18.5226 30.8371C20.5104 31.6804 22.1669 32.8249 23.492 34.2705C24.8172 35.7162 25.8111 37.4179 26.4737 39.3755C27.1363 41.3031 27.4676 43.3662 27.4676 45.5648C27.4676 48.0043 27.0911 50.218 26.3382 52.2058C25.6154 54.1635 24.5612 55.8501 23.1758 57.2656C21.7904 58.6511 20.1188 59.7353 18.1612 60.5184C16.2336 61.2713 14.0651 61.6478 11.6557 61.6478H0.941188ZM21.188 45.5648C21.188 44.0288 20.9772 42.6132 20.5555 41.3181C20.1339 40.0231 19.5165 38.9087 18.7033 37.975C17.8901 37.0414 16.8811 36.3185 15.6764 35.8065C14.5018 35.2945 13.1616 35.0385 11.6557 35.0385H7.17562C6.65581 35.0385 6.23443 35.4599 6.23443 35.9797V55.2402C6.23443 55.76 6.65581 56.1814 7.17562 56.1814H11.6557C13.1917 56.1814 14.547 55.9103 15.7216 55.3682C16.9263 54.8261 17.9202 54.0882 18.7033 53.1545C19.5165 52.1907 20.1339 51.0613 20.5555 49.7662C20.9772 48.4712 21.188 47.0707 21.188 45.5648ZM133.867 108.127C135.343 108.127 136.578 107.826 137.571 107.224C138.595 106.621 139.409 105.838 140.011 104.875C140.643 103.911 141.08 102.811 141.321 101.577C141.592 100.312 141.728 99.0166 141.728 97.6914V84.432C141.728 82.7228 143.113 81.3373 144.822 81.3373V81.3373C146.531 81.3373 147.917 82.7228 147.917 84.432V97.6914C147.917 99.89 147.646 101.953 147.104 103.881C146.592 105.808 145.764 107.495 144.619 108.94C143.505 110.386 142.059 111.531 140.282 112.374C138.505 113.217 136.382 113.639 133.912 113.639C131.352 113.639 129.169 113.202 127.361 112.329C125.584 111.425 124.139 110.251 123.024 108.805C121.91 107.329 121.097 105.628 120.585 103.7C120.103 101.772 119.952 99.7264 119.952 97.6482V61.2233C119.952 61.1978 119.973 61.1772 119.999 61.1772V61.1772C120.034 61.1772 120.056 61.1386 120.041 61.1065C119.984 60.9851 119.952 60.8496 119.952 60.7066V30.5133C119.952 29.9935 120.374 29.5721 120.894 29.5721H124.301C124.589 29.5721 124.86 29.7032 125.039 29.928L139.793 48.5109C140.347 49.209 141.471 48.817 141.471 47.9256V30.5585C141.471 30.0387 141.893 29.6173 142.413 29.6173H146.765C147.285 29.6173 147.706 30.0387 147.706 30.5585V60.7066C147.706 61.2264 147.285 61.6478 146.765 61.6478H143.098C142.812 61.6478 142.542 61.5179 142.363 61.2948L127.746 43.0352C127.19 42.3408 126.07 42.7339 126.07 43.6234V60.7066C126.07 60.8496 126.038 60.9851 125.981 61.1065C125.966 61.1386 125.989 61.1772 126.024 61.1772V61.1772C126.05 61.1772 126.07 61.1978 126.07 61.2233V97.6809C126.07 99.0362 126.217 100.357 126.458 101.622C126.729 102.857 127.166 103.956 127.768 104.92C128.4 105.884 129.214 106.667 130.208 107.269C131.201 107.841 132.421 108.127 133.867 108.127ZM57.4652 88.8819V88.8819C58.0804 89.2705 58.9887 89.0996 59.3367 88.4605L60.2829 86.7233C60.9144 85.5638 60.5689 84.101 59.3973 83.4922C58.483 83.0172 57.4926 82.5851 56.4261 82.1957C54.5287 81.4729 52.4505 81.1115 50.1917 81.1115C48.5653 81.1115 47.0443 81.3373 45.6288 81.7891C44.2132 82.2108 42.9633 82.8432 41.8791 83.6865C40.825 84.5298 39.9967 85.584 39.3944 86.8489C38.792 88.1139 38.4908 89.5595 38.4908 91.1859C38.4908 92.4208 38.6715 93.49 39.0329 94.3935C39.4245 95.2669 39.9967 96.05 40.7497 96.7427C41.5026 97.4053 42.4363 97.9926 43.5506 98.5046C44.6951 98.9865 46.0354 99.4383 47.5714 99.8599C48.8363 100.221 49.9808 100.553 51.0048 100.854C52.0289 101.155 52.9023 101.486 53.6251 101.848C54.3479 102.209 54.9051 102.631 55.2967 103.113C55.6882 103.595 55.884 104.182 55.884 104.875C55.884 107.073 54.1672 108.172 50.7338 108.172C49.4989 108.172 48.2942 108.022 47.1196 107.721C45.945 107.42 44.8758 107.058 43.9121 106.636C42.9483 106.185 42.105 105.748 41.3821 105.326V105.326C40.6331 104.838 39.5188 105.057 39.1109 105.853L38.2465 107.539C37.6347 108.732 37.9845 110.211 39.1586 110.86C40.5021 111.602 41.951 112.212 43.5055 112.69C45.8547 113.413 48.234 113.774 50.6434 113.774C52.2096 113.774 53.7004 113.609 55.116 113.277C56.5616 112.916 57.8266 112.359 58.9108 111.606C60.0252 110.853 60.8986 109.874 61.5311 108.669C62.1937 107.435 62.525 105.959 62.525 104.242C62.525 102.766 62.284 101.531 61.8022 100.538C61.3203 99.5135 60.6275 98.6401 59.724 97.9173C58.8506 97.1945 57.7663 96.5921 56.4713 96.1102C55.2063 95.6283 53.7908 95.1766 52.2246 94.7549C51.0199 94.4537 49.9507 94.1676 49.0171 93.8965C48.1135 93.6255 47.3606 93.3243 46.7582 92.993C46.1558 92.6617 45.689 92.2852 45.3577 91.8636C45.0565 91.4118 44.9059 90.8546 44.9059 90.192C44.9059 89.0475 45.3276 88.1591 46.1709 87.5266C47.0142 86.8941 48.2942 86.5779 50.011 86.5779C50.9747 86.5779 51.9234 86.6983 52.8571 86.9393C53.7908 87.1802 54.6491 87.4814 55.4322 87.8428C56.2454 88.1741 56.923 88.5205 57.4652 88.8819ZM94.7489 113.052C95.5111 112.814 96.2447 112.53 96.9497 112.197C97.8988 111.75 99.0522 111.905 99.7503 112.689V112.689C100.161 113.149 100.749 113.413 101.367 113.413H101.564C103.387 113.413 104.353 111.26 103.141 109.898V109.898C102.427 109.096 102.444 107.892 103.062 107.014C103.834 105.917 104.466 104.722 104.959 103.429C105.712 101.531 106.088 99.5437 106.088 97.4655C106.088 95.4476 105.712 93.4598 104.959 91.5022C104.206 89.5445 103.152 87.7976 101.797 86.2616C100.441 84.7256 98.7998 83.4908 96.8722 82.5571C94.9748 81.5933 92.8665 81.1115 90.5474 81.1115C88.2886 81.1115 86.1954 81.5632 84.2678 82.4668C82.3403 83.3402 80.6687 84.5298 79.2532 86.0358C77.8678 87.5416 76.7684 89.2734 75.9553 91.2311C75.1722 93.1888 74.7807 95.2368 74.7807 97.3752C74.7807 99.4232 75.1571 101.426 75.9101 103.384C76.663 105.341 77.7172 107.073 79.0725 108.579C80.4579 110.085 82.0993 111.305 83.9968 112.238C85.9243 113.172 88.0627 113.639 90.4119 113.639C91.9479 113.639 93.3936 113.443 94.7489 113.052ZM92.7159 107.856C92.0232 108.037 91.2703 108.127 90.4571 108.127C88.9813 108.127 87.6561 107.826 86.4815 107.224C85.337 106.621 84.3582 105.823 83.545 104.829C82.7619 103.835 82.1596 102.691 81.7379 101.396C81.3163 100.101 81.1054 98.7606 81.1054 97.3752C81.1054 96.05 81.3012 94.7549 81.6927 93.49C82.1144 92.1949 82.7168 91.0353 83.4998 90.0113C84.2829 88.9873 85.2617 88.1741 86.4363 87.5718C87.6109 86.9393 88.9512 86.623 90.4571 86.623C91.9027 86.623 93.1978 86.9242 94.3423 87.5266C95.5169 88.1289 96.4957 88.9271 97.2788 89.921C98.092 90.9149 98.7094 92.0593 99.1311 93.3544C99.5828 94.6495 99.8087 95.9897 99.8087 97.3752C99.8087 98.5498 99.6431 99.7093 99.3118 100.854C99.2201 101.171 99.118 101.48 99.0055 101.783C98.5722 102.951 97.0826 103.086 96.2544 102.156V102.156C95.9002 101.759 95.3931 101.531 94.8606 101.531H94.5337C92.7061 101.531 91.7346 103.689 92.946 105.057L93.2773 105.432C94.0085 106.258 93.7749 107.547 92.7159 107.856V107.856ZM177.934 83.9149C177.344 82.3631 175.856 81.3373 174.196 81.3373V81.3373C172.537 81.3373 171.051 82.3609 170.46 83.9103L169.835 85.5459L160.744 109.365C159.998 111.319 161.441 113.413 163.531 113.413V113.413C164.782 113.413 165.901 112.632 166.332 111.458L168.108 106.623C168.374 105.898 169.064 105.417 169.835 105.417V105.417H176.977C178.647 105.417 180.141 106.454 180.725 108.019L182.01 111.467C182.447 112.637 183.564 113.413 184.813 113.413V113.413C186.908 113.413 188.354 111.316 187.609 109.358L177.934 83.9149ZM171.151 96.7628C172.176 93.96 176.149 93.9852 177.138 96.8009V96.8009C177.864 98.8689 176.33 101.035 174.138 101.035H169.835V101.035C169.716 101.035 169.633 100.916 169.674 100.804L169.835 100.362L171.151 96.7628ZM205.274 113.413C203.552 113.413 202.157 112.017 202.157 110.296V85.3373C202.157 83.1282 203.947 81.3373 206.157 81.3373H216.342C217.818 81.3373 219.173 81.6536 220.408 82.2861C221.673 82.8884 222.757 83.7016 223.661 84.7256C224.564 85.7195 225.272 86.864 225.784 88.1591C226.296 89.424 226.552 90.704 226.552 91.9991C226.552 94.0772 226.025 95.9747 224.971 97.6914C224.788 97.9935 224.592 98.2805 224.385 98.5526C222.906 100.492 221.903 103.22 223.168 105.304L225.328 108.865C226.539 110.86 225.103 113.413 222.768 113.413V113.413C221.723 113.413 220.754 112.869 220.21 111.976L215.685 104.548C214.971 103.376 213.698 102.661 212.325 102.661V102.661C210.152 102.661 208.391 104.422 208.391 106.595V110.296C208.391 112.017 206.995 113.413 205.274 113.413V113.413ZM208.391 93.1945C208.391 95.4036 210.182 97.1945 212.391 97.1945H216.207C216.779 97.1945 217.306 97.0589 217.788 96.7879C218.3 96.5168 218.737 96.1554 219.098 95.7036C219.459 95.2217 219.745 94.6646 219.956 94.0321C220.167 93.3996 220.273 92.7219 220.273 91.9991C220.273 91.2462 220.152 90.5534 219.911 89.921C219.67 89.2885 219.339 88.7464 218.917 88.2946C218.526 87.8127 218.059 87.4513 217.517 87.2103C217.005 86.9393 216.478 86.8037 215.936 86.8037H212.391C210.182 86.8037 208.391 88.5946 208.391 90.8037V93.1945ZM261.227 113.413C262.737 113.413 263.96 112.189 263.96 110.68V110.68C263.96 109.17 262.737 107.947 261.227 107.947H251.923C249.713 107.947 247.923 106.156 247.923 103.947V103.589C247.923 101.38 249.713 99.5888 251.923 99.5888H258.901C260.298 99.5888 261.431 98.4562 261.431 97.0589V97.0589C261.431 95.6617 260.298 94.529 258.901 94.529H251.785C249.652 94.529 247.923 92.7997 247.923 90.6664V90.6664C247.923 88.5331 249.652 86.8037 251.785 86.8037H260.821C262.33 86.8037 263.554 85.58 263.554 84.0705V84.0705C263.554 82.561 262.33 81.3373 260.821 81.3373H245.688C243.479 81.3373 241.688 83.1282 241.688 85.3373V109.413C241.688 111.622 243.479 113.413 245.688 113.413H261.227ZM45.4832 29.5721C45.0929 29.5721 44.7431 29.813 44.6039 30.1777L33.0794 60.371C32.8442 60.9871 33.2992 61.6478 33.9587 61.6478H38.3502C38.7448 61.6478 39.0976 61.4015 39.2337 61.0311L41.7172 54.2682C41.8532 53.8977 42.206 53.6515 42.6007 53.6515H52.494C52.887 53.6515 53.2386 53.8956 53.3759 54.2638L55.9009 61.0354C56.0382 61.4036 56.3898 61.6478 56.7828 61.6478H61.1795C61.8385 61.6478 62.2935 60.988 62.0593 60.3721L50.5773 30.1788C50.4384 29.8135 50.0883 29.5721 49.6976 29.5721H45.4832ZM51.578 48.0162C51.793 48.6283 51.3388 49.2693 50.69 49.2693H44.329C43.6751 49.2693 43.2205 48.619 43.445 48.0049L46.6891 39.1313C46.9924 38.3017 48.1684 38.3091 48.4611 39.1425L51.578 48.0162ZM79.3799 30.929C79.1535 30.3146 79.6082 29.6625 80.2631 29.6625H83.977C84.3799 29.6625 84.7381 29.9189 84.8679 30.3003L87.374 37.6618C87.6635 38.5123 88.8664 38.5123 89.1559 37.6618L91.6619 30.3003C91.7918 29.9189 92.15 29.6625 92.5529 29.6625H96.3041C96.9611 29.6625 97.416 30.3186 97.1855 30.9338L92.3226 43.9149C92.2407 44.1335 92.243 44.3749 92.3291 44.5919L95.3489 52.2087C95.6679 53.0132 96.8121 52.997 97.1082 52.1838L105.116 30.1913C105.252 29.8195 105.605 29.5721 106.001 29.5721H110.719C111.387 29.5721 111.843 30.2492 111.591 30.8681L99.3009 61.0614C99.1566 61.416 98.812 61.6478 98.4292 61.6478H94.4514C94.0703 61.6478 93.7269 61.418 93.5815 61.0657L89.1349 50.2928C88.8146 49.5167 87.7153 49.5167 87.3949 50.2928L82.9484 61.0657C82.803 61.418 82.4595 61.6478 82.0784 61.6478H78.1024C77.7187 61.6478 77.3735 61.415 77.2298 61.0593L65.0249 30.866C64.7748 30.2473 65.2301 29.5721 65.8975 29.5721H70.5302C70.9253 29.5721 71.2783 29.8188 71.4141 30.1899L79.4553 52.1639C79.7537 52.9792 80.9029 52.9902 81.2167 52.1806L84.1608 44.5864C84.2436 44.3726 84.2456 44.1359 84.1664 43.9208L79.3799 30.929Z" fill="#286A5E"/>
<path d="M4.608 169.784V182.696C4.608 182.824 4.672 182.904 4.8 182.936C5.344 183.032 5.92 183.08 6.528 183.08C8.656 183.08 10.208 182.536 11.184 181.448C12.16 180.344 12.648 178.528 12.648 176C12.648 173.728 12.144 172.064 11.136 171.008C10.144 169.936 8.608 169.4 6.528 169.4C5.92 169.4 5.344 169.448 4.8 169.544C4.672 169.576 4.608 169.656 4.608 169.784ZM3.336 185.072C2.936 185.024 2.608 184.856 2.352 184.568C2.096 184.264 1.968 183.912 1.968 183.512V168.968C1.968 168.568 2.096 168.224 2.352 167.936C2.608 167.632 2.936 167.456 3.336 167.408C4.296 167.296 5.36 167.24 6.528 167.24C9.36 167.24 11.504 167.976 12.96 169.448C14.432 170.904 15.168 173.088 15.168 176C15.168 182.16 12.288 185.24 6.528 185.24C5.36 185.24 4.296 185.184 3.336 185.072Z" fill="#F04961"/>
<path d="M27.8627 174.152C26.0387 174.152 25.0147 175.232 24.7907 177.392C24.7587 177.536 24.8227 177.608 24.9827 177.608H30.3587C30.4867 177.608 30.5507 177.536 30.5507 177.392C30.4547 175.232 29.5587 174.152 27.8627 174.152ZM28.4627 185.24C26.4627 185.24 24.9187 184.696 23.8307 183.608C22.7587 182.52 22.2227 180.904 22.2227 178.76C22.2227 176.616 22.7027 175 23.6627 173.912C24.6387 172.824 26.0387 172.28 27.8627 172.28C31.1907 172.28 32.9107 174.232 33.0227 178.136C33.0387 178.52 32.9027 178.84 32.6147 179.096C32.3267 179.352 31.9907 179.48 31.6067 179.48H24.9587C24.8307 179.48 24.7667 179.544 24.7667 179.672C24.9587 182.136 26.2707 183.368 28.7027 183.368C29.5507 183.368 30.3827 183.232 31.1987 182.96C31.4387 182.88 31.6627 182.912 31.8707 183.056C32.0787 183.2 32.1827 183.4 32.1827 183.656C32.1827 183.96 32.0867 184.232 31.8947 184.472C31.7027 184.712 31.4547 184.872 31.1507 184.952C30.2707 185.144 29.3747 185.24 28.4627 185.24Z" fill="#F04961"/>
<path d="M45.1258 179.72C43.4938 179.32 42.3418 178.816 41.6698 178.208C41.0138 177.584 40.6858 176.808 40.6858 175.88C40.6858 174.76 41.0858 173.88 41.8858 173.24C42.7018 172.6 43.9018 172.28 45.4858 172.28C46.5098 172.28 47.5418 172.392 48.5818 172.616C48.8698 172.68 49.1018 172.84 49.2778 173.096C49.4698 173.336 49.5658 173.608 49.5658 173.912C49.5658 174.168 49.4618 174.368 49.2538 174.512C49.0458 174.656 48.8218 174.688 48.5818 174.608C47.5738 174.336 46.6218 174.2 45.7258 174.2C44.0458 174.2 43.2058 174.68 43.2058 175.64C43.2058 176.12 43.3658 176.512 43.6858 176.816C44.0058 177.12 44.5658 177.368 45.3658 177.56C47.2058 177.992 48.4458 178.512 49.0858 179.12C49.7258 179.712 50.0458 180.592 50.0458 181.76C50.0458 182.848 49.6218 183.704 48.7738 184.328C47.9418 184.936 46.7258 185.24 45.1258 185.24C44.0858 185.24 43.0458 185.104 42.0058 184.832C41.7178 184.752 41.4858 184.592 41.3098 184.352C41.1338 184.096 41.0458 183.816 41.0458 183.512C41.0458 183.272 41.1418 183.08 41.3338 182.936C41.5418 182.792 41.7578 182.76 41.9818 182.84C42.9738 183.16 43.9418 183.32 44.8858 183.32C46.6458 183.32 47.5258 182.8 47.5258 181.76C47.5258 181.264 47.3498 180.864 46.9978 180.56C46.6458 180.24 46.0218 179.96 45.1258 179.72Z" fill="#F04961"/>
<path d="M59.2596 168.32C59.2596 167.952 59.3876 167.64 59.6436 167.384C59.9156 167.128 60.2276 167 60.5796 167C60.9316 167 61.2356 167.128 61.4916 167.384C61.7636 167.64 61.8996 167.952 61.8996 168.32C61.8996 168.688 61.7636 169 61.4916 169.256C61.2356 169.512 60.9316 169.64 60.5796 169.64C60.2276 169.64 59.9156 169.512 59.6436 169.256C59.3876 169 59.2596 168.688 59.2596 168.32ZM61.4916 184.616C61.2356 184.872 60.9316 185 60.5796 185C60.2276 185 59.9156 184.872 59.6436 184.616C59.3876 184.36 59.2596 184.048 59.2596 183.68V173.84C59.2596 173.472 59.3876 173.16 59.6436 172.904C59.9156 172.648 60.2276 172.52 60.5796 172.52C60.9316 172.52 61.2356 172.648 61.4916 172.904C61.7636 173.16 61.8996 173.472 61.8996 173.84V183.68C61.8996 184.048 61.7636 184.36 61.4916 184.616Z" fill="#F04961"/>
<path d="M76.2808 174.2C74.2808 174.2 73.2808 175.64 73.2808 178.52C73.2808 180.056 73.5448 181.2 74.0728 181.952C74.6168 182.704 75.3528 183.08 76.2808 183.08C77.0968 183.08 77.8008 182.784 78.3928 182.192C78.9848 181.584 79.2808 180.88 79.2808 180.08V177.2C79.2808 176.4 78.9848 175.704 78.3928 175.112C77.8008 174.504 77.0968 174.2 76.2808 174.2ZM75.5608 185C74.1528 185 73.0008 184.432 72.1048 183.296C71.2088 182.16 70.7608 180.568 70.7608 178.52C70.7608 176.536 71.1848 175 72.0328 173.912C72.8808 172.824 74.0568 172.28 75.5608 172.28C76.3288 172.28 77.0008 172.416 77.5768 172.688C78.1528 172.944 78.7368 173.4 79.3288 174.056C79.3448 174.072 79.3608 174.08 79.3768 174.08C79.3928 174.08 79.4008 174.072 79.4008 174.056V173.696C79.4168 173.376 79.5448 173.104 79.7848 172.88C80.0248 172.64 80.3048 172.52 80.6248 172.52C80.9448 172.52 81.2168 172.64 81.4408 172.88C81.6808 173.104 81.8008 173.376 81.8008 173.696V184.16C81.8008 186.336 81.3128 187.936 80.3368 188.96C79.3608 190 77.8488 190.52 75.8008 190.52C74.8728 190.52 74.0168 190.44 73.2328 190.28C72.9288 190.216 72.6808 190.056 72.4888 189.8C72.2968 189.56 72.2008 189.28 72.2008 188.96C72.2008 188.704 72.3048 188.496 72.5128 188.336C72.7368 188.192 72.9768 188.16 73.2328 188.24C74.0808 188.48 74.9368 188.6 75.8008 188.6C77.0168 188.6 77.8968 188.256 78.4408 187.568C79.0008 186.896 79.2808 185.8 79.2808 184.28V183.464C79.2808 183.448 79.2728 183.44 79.2568 183.44C79.2408 183.44 79.2248 183.448 79.2088 183.464C78.2008 184.488 76.9848 185 75.5608 185Z" fill="#F04961"/>
<path d="M92.7021 184.64C92.4621 184.88 92.1661 185 91.8141 185C91.4621 185 91.1581 184.88 90.9021 184.64C90.6621 184.4 90.5421 184.104 90.5421 183.752V173.696C90.5421 173.376 90.6541 173.104 90.8781 172.88C91.1181 172.64 91.3981 172.52 91.7181 172.52C92.0381 172.52 92.3101 172.64 92.5341 172.88C92.7741 173.104 92.9021 173.376 92.9181 173.696L92.9421 174.056C92.9421 174.072 92.9501 174.08 92.9661 174.08C92.9821 174.08 92.9981 174.072 93.0141 174.056C94.1501 172.872 95.4461 172.28 96.9021 172.28C98.3581 172.28 99.4221 172.696 100.094 173.528C100.766 174.344 101.102 175.688 101.102 177.56V183.776C101.102 184.112 100.982 184.4 100.742 184.64C100.502 184.88 100.214 185 99.8781 185C99.5421 185 99.2461 184.88 98.9901 184.64C98.7501 184.4 98.6301 184.112 98.6301 183.776V177.92C98.6301 176.48 98.4541 175.504 98.1021 174.992C97.7501 174.464 97.1101 174.2 96.1821 174.2C95.4301 174.2 94.7181 174.536 94.0461 175.208C93.3901 175.864 93.0621 176.568 93.0621 177.32V183.752C93.0621 184.104 92.9421 184.4 92.7021 184.64Z" fill="#F04961"/>
<path d="M128.857 185.24C126.425 185.24 124.473 184.456 123.001 182.888C121.545 181.32 120.817 179.104 120.817 176.24C120.817 173.408 121.521 171.2 122.929 169.616C124.353 168.032 126.329 167.24 128.857 167.24C129.945 167.24 130.937 167.32 131.833 167.48C132.153 167.544 132.417 167.712 132.625 167.984C132.833 168.24 132.937 168.536 132.937 168.872C132.937 169.16 132.817 169.392 132.577 169.568C132.353 169.728 132.105 169.768 131.833 169.688C131.081 169.496 130.169 169.4 129.097 169.4C127.369 169.4 126.001 170 124.993 171.2C124.001 172.384 123.505 174.064 123.505 176.24C123.505 178.416 124.017 180.104 125.041 181.304C126.065 182.488 127.417 183.08 129.097 183.08C130.153 183.08 131.105 182.976 131.953 182.768C132.225 182.688 132.473 182.736 132.697 182.912C132.937 183.088 133.057 183.32 133.057 183.608C133.057 183.944 132.953 184.248 132.745 184.52C132.537 184.776 132.265 184.936 131.929 185C130.985 185.16 129.961 185.24 128.857 185.24Z" fill="#F04961"/>
<path d="M150.031 178.76C150.031 175.72 148.927 174.2 146.719 174.2C144.511 174.2 143.407 175.72 143.407 178.76C143.407 181.8 144.511 183.32 146.719 183.32C148.927 183.32 150.031 181.8 150.031 178.76ZM151.039 183.56C149.999 184.68 148.559 185.24 146.719 185.24C144.879 185.24 143.439 184.68 142.399 183.56C141.359 182.424 140.839 180.824 140.839 178.76C140.839 176.696 141.359 175.104 142.399 173.984C143.439 172.848 144.879 172.28 146.719 172.28C148.559 172.28 149.999 172.848 151.039 173.984C152.079 175.104 152.599 176.696 152.599 178.76C152.599 180.824 152.079 182.424 151.039 183.56Z" fill="#F04961"/>
<path d="M162.666 184.64C162.426 184.88 162.13 185 161.778 185C161.426 185 161.122 184.88 160.866 184.64C160.626 184.4 160.506 184.104 160.506 183.752V173.696C160.506 173.376 160.618 173.104 160.842 172.88C161.082 172.64 161.362 172.52 161.682 172.52C162.002 172.52 162.274 172.64 162.498 172.88C162.738 173.104 162.866 173.376 162.882 173.696L162.906 174.056C162.906 174.072 162.914 174.08 162.93 174.08C162.946 174.08 162.962 174.072 162.978 174.056C164.114 172.872 165.41 172.28 166.866 172.28C168.322 172.28 169.386 172.696 170.058 173.528C170.73 174.344 171.066 175.688 171.066 177.56V183.776C171.066 184.112 170.946 184.4 170.706 184.64C170.466 184.88 170.178 185 169.842 185C169.506 185 169.21 184.88 168.954 184.64C168.714 184.4 168.594 184.112 168.594 183.776V177.92C168.594 176.48 168.418 175.504 168.066 174.992C167.714 174.464 167.074 174.2 166.146 174.2C165.394 174.2 164.682 174.536 164.01 175.208C163.354 175.864 163.026 176.568 163.026 177.32V183.752C163.026 184.104 162.906 184.4 162.666 184.64Z" fill="#F04961"/>
<path d="M183.764 179.72C182.132 179.32 180.98 178.816 180.308 178.208C179.652 177.584 179.324 176.808 179.324 175.88C179.324 174.76 179.724 173.88 180.524 173.24C181.34 172.6 182.54 172.28 184.124 172.28C185.148 172.28 186.18 172.392 187.22 172.616C187.508 172.68 187.74 172.84 187.916 173.096C188.108 173.336 188.204 173.608 188.204 173.912C188.204 174.168 188.1 174.368 187.892 174.512C187.684 174.656 187.46 174.688 187.22 174.608C186.212 174.336 185.26 174.2 184.364 174.2C182.684 174.2 181.844 174.68 181.844 175.64C181.844 176.12 182.004 176.512 182.324 176.816C182.644 177.12 183.204 177.368 184.004 177.56C185.844 177.992 187.084 178.512 187.724 179.12C188.364 179.712 188.684 180.592 188.684 181.76C188.684 182.848 188.26 183.704 187.412 184.328C186.58 184.936 185.364 185.24 183.764 185.24C182.724 185.24 181.684 185.104 180.644 184.832C180.356 184.752 180.124 184.592 179.948 184.352C179.772 184.096 179.684 183.816 179.684 183.512C179.684 183.272 179.78 183.08 179.972 182.936C180.18 182.792 180.396 182.76 180.62 182.84C181.612 183.16 182.58 183.32 183.524 183.32C185.284 183.32 186.164 182.8 186.164 181.76C186.164 181.264 185.988 180.864 185.636 180.56C185.284 180.24 184.66 179.96 183.764 179.72Z" fill="#F04961"/>
<path d="M201.018 185.24C199.61 185.24 198.578 184.856 197.922 184.088C197.266 183.304 196.938 182.008 196.938 180.2V173.744C196.938 173.408 197.058 173.12 197.298 172.88C197.538 172.64 197.826 172.52 198.162 172.52C198.498 172.52 198.786 172.64 199.026 172.88C199.282 173.12 199.41 173.408 199.41 173.744V179.84C199.41 181.168 199.586 182.08 199.938 182.576C200.29 183.072 200.89 183.32 201.738 183.32C202.49 183.32 203.194 182.992 203.85 182.336C204.522 181.664 204.858 180.952 204.858 180.2V173.768C204.858 173.416 204.978 173.12 205.218 172.88C205.474 172.64 205.778 172.52 206.13 172.52C206.482 172.52 206.778 172.64 207.018 172.88C207.258 173.12 207.378 173.416 207.378 173.768V183.824C207.378 184.144 207.258 184.424 207.018 184.664C206.794 184.888 206.522 185 206.202 185C205.882 185 205.602 184.888 205.362 184.664C205.122 184.424 204.994 184.144 204.978 183.824V183.464C204.978 183.448 204.97 183.44 204.954 183.44C204.938 183.44 204.922 183.448 204.906 183.464C203.77 184.648 202.474 185.24 201.018 185.24Z" fill="#F04961"/>
<path d="M219.191 184.616C218.935 184.872 218.631 185 218.279 185C217.927 185 217.615 184.872 217.343 184.616C217.087 184.36 216.959 184.048 216.959 183.68V168.32C216.959 167.952 217.087 167.64 217.343 167.384C217.615 167.128 217.927 167 218.279 167C218.631 167 218.935 167.128 219.191 167.384C219.463 167.64 219.599 167.952 219.599 168.32V183.68C219.599 184.048 219.463 184.36 219.191 184.616Z" fill="#F04961"/>
<path d="M229.54 174.92C229.268 174.92 229.036 174.824 228.844 174.632C228.668 174.44 228.581 174.216 228.581 173.96C228.581 173.704 228.668 173.48 228.844 173.288C229.036 173.096 229.268 173 229.54 173H230.885C231.029 173 231.1 172.928 231.1 172.784V169.688C231.1 169.336 231.22 169.04 231.46 168.8C231.7 168.56 231.996 168.44 232.348 168.44C232.7 168.44 232.996 168.56 233.236 168.8C233.492 169.04 233.62 169.336 233.62 169.688V172.784C233.62 172.928 233.693 173 233.837 173H236.98C237.252 173 237.476 173.096 237.652 173.288C237.844 173.48 237.941 173.704 237.941 173.96C237.941 174.216 237.844 174.44 237.652 174.632C237.476 174.824 237.252 174.92 236.98 174.92H233.837C233.693 174.92 233.62 174.992 233.62 175.136V180.68C233.62 181.768 233.749 182.48 234.005 182.816C234.261 183.152 234.772 183.32 235.54 183.32C235.908 183.32 236.26 183.296 236.596 183.248C236.852 183.216 237.076 183.272 237.268 183.416C237.476 183.56 237.581 183.752 237.581 183.992C237.581 184.28 237.484 184.536 237.292 184.76C237.1 184.984 236.86 185.112 236.572 185.144C235.9 185.208 235.397 185.24 235.061 185.24C233.589 185.24 232.556 184.928 231.964 184.304C231.388 183.68 231.1 182.552 231.1 180.92V175.136C231.1 174.992 231.029 174.92 230.885 174.92H229.54Z" fill="#F04961"/>
<path d="M252.317 178.712C251.005 178.712 250.013 178.936 249.341 179.384C248.685 179.816 248.357 180.408 248.357 181.16C248.357 181.752 248.533 182.24 248.885 182.624C249.237 183.008 249.661 183.2 250.157 183.2C251.213 183.2 252.053 182.872 252.677 182.216C253.317 181.544 253.637 180.632 253.637 179.48V178.904C253.637 178.776 253.565 178.712 253.421 178.712H252.317ZM249.557 185.24C248.469 185.24 247.573 184.888 246.869 184.184C246.181 183.48 245.837 182.552 245.837 181.4C245.837 179.992 246.373 178.904 247.445 178.136C248.517 177.352 250.141 176.96 252.317 176.96H253.421C253.565 176.96 253.637 176.888 253.637 176.744V176.48C253.637 175.632 253.437 175.04 253.037 174.704C252.637 174.368 251.917 174.2 250.877 174.2C249.949 174.2 248.845 174.392 247.565 174.776C247.325 174.856 247.093 174.824 246.869 174.68C246.661 174.52 246.557 174.312 246.557 174.056C246.557 173.736 246.653 173.448 246.845 173.192C247.037 172.936 247.285 172.776 247.589 172.712C248.741 172.424 249.837 172.28 250.877 172.28C252.893 172.28 254.277 172.64 255.029 173.36C255.781 174.08 256.157 175.4 256.157 177.32V183.824C256.157 184.144 256.037 184.424 255.797 184.664C255.573 184.888 255.301 185 254.981 185C254.661 185 254.381 184.888 254.141 184.664C253.917 184.424 253.797 184.144 253.781 183.824L253.757 183.224C253.757 183.208 253.749 183.2 253.733 183.2C253.701 183.2 253.685 183.208 253.685 183.224C252.757 184.568 251.381 185.24 249.557 185.24Z" fill="#F04961"/>
<path d="M266.932 184.64C266.692 184.88 266.396 185 266.044 185C265.692 185 265.388 184.88 265.132 184.64C264.892 184.4 264.772 184.104 264.772 183.752V173.696C264.772 173.376 264.884 173.104 265.108 172.88C265.348 172.64 265.628 172.52 265.948 172.52C266.268 172.52 266.54 172.64 266.764 172.88C267.004 173.104 267.132 173.376 267.148 173.696L267.172 174.056C267.172 174.072 267.18 174.08 267.196 174.08C267.212 174.08 267.228 174.072 267.244 174.056C268.38 172.872 269.676 172.28 271.132 172.28C272.588 172.28 273.652 172.696 274.324 173.528C274.996 174.344 275.332 175.688 275.332 177.56V183.776C275.332 184.112 275.212 184.4 274.972 184.64C274.732 184.88 274.444 185 274.108 185C273.772 185 273.476 184.88 273.22 184.64C272.98 184.4 272.86 184.112 272.86 183.776V177.92C272.86 176.48 272.684 175.504 272.332 174.992C271.98 174.464 271.34 174.2 270.412 174.2C269.66 174.2 268.948 174.536 268.276 175.208C267.62 175.864 267.292 176.568 267.292 177.32V183.752C267.292 184.104 267.172 184.4 266.932 184.64Z" fill="#F04961"/>
<path d="M289.11 185.24C287.19 185.24 285.71 184.696 284.67 183.608C283.63 182.504 283.11 180.888 283.11 178.76C283.11 176.664 283.614 175.064 284.622 173.96C285.63 172.84 287.046 172.28 288.87 172.28C289.718 172.28 290.526 172.336 291.294 172.448C291.598 172.496 291.846 172.64 292.038 172.88C292.246 173.12 292.35 173.4 292.35 173.72C292.35 173.992 292.238 174.208 292.014 174.368C291.806 174.528 291.566 174.576 291.294 174.512C290.51 174.336 289.766 174.248 289.062 174.248C287.958 174.248 287.126 174.608 286.566 175.328C286.022 176.048 285.75 177.192 285.75 178.76C285.75 180.36 286.038 181.512 286.614 182.216C287.206 182.92 288.102 183.272 289.302 183.272C290.054 183.272 290.774 183.168 291.462 182.96C291.718 182.88 291.95 182.92 292.158 183.08C292.366 183.224 292.47 183.424 292.47 183.68C292.47 184 292.366 184.288 292.158 184.544C291.95 184.8 291.694 184.96 291.39 185.024C290.622 185.168 289.862 185.24 289.11 185.24Z" fill="#F04961"/>
<path d="M304.047 184.808L300.111 173.768C299.999 173.464 300.039 173.184 300.231 172.928C300.423 172.656 300.679 172.52 300.999 172.52C301.399 172.52 301.759 172.64 302.079 172.88C302.399 173.104 302.615 173.4 302.727 173.768L305.415 182.096C305.415 182.112 305.423 182.12 305.439 182.12C305.455 182.12 305.463 182.112 305.463 182.096L308.463 173.72C308.607 173.352 308.831 173.064 309.135 172.856C309.439 172.632 309.783 172.52 310.167 172.52C310.471 172.52 310.703 172.648 310.863 172.904C311.039 173.144 311.071 173.408 310.959 173.696L304.839 189.104C304.695 189.456 304.463 189.736 304.143 189.944C303.823 190.168 303.471 190.28 303.087 190.28C302.799 190.28 302.567 190.152 302.391 189.896C302.231 189.64 302.207 189.376 302.319 189.104L304.047 185.192C304.079 185.128 304.095 185.064 304.095 185C304.095 184.936 304.079 184.872 304.047 184.808Z" fill="#F04961"/>
</svg>
