<svg width="285" height="107" viewBox="0 0 285 107" fill="none" xmlns="http://www.w3.org/2000/svg">
<path d="M5.38706 101.451C33.1932 101.451 60.9038 101.451 88.7099 101.451C88.7099 100.015 88.7099 98.6747 88.7099 97.047C90.1432 97.047 92.6484 97.0938 92.6484 97.0938C93.0307 97.0938 93.5078 97.0938 93.5078 97.0938C93.5078 97.0938 93.4876 103.462 93.4876 106.239C62.4326 106.239 31.5688 106.239 0.609375 106.239C0.609375 75.2167 0.609375 44.2905 0.609375 13.2686C31.5688 13.2686 62.4326 13.2686 93.392 13.2686C93.392 17.7687 93.392 22.2688 93.392 26.7689C91.8632 26.7689 90.4299 26.7689 88.7099 26.7689C88.7099 23.8965 88.7099 21.1198 88.7099 18.1517C60.8082 18.1517 33.0976 18.1517 5.38706 18.1517C5.38706 45.9182 5.38706 73.5891 5.38706 101.451Z" fill="url(#paint0_linear_411_1113)"/>
<path d="M101.131 5.70539C73.2296 5.70539 45.6146 5.70539 17.8084 5.70539C17.8084 7.14159 17.8084 8.57779 17.8084 10.014C16.184 10.014 14.7507 10.014 13.1263 10.014C13.1263 6.95009 13.1263 3.98191 13.1263 0.822266C44.0857 0.822266 74.9496 0.822266 106.005 0.822266C106.005 1.58824 106.005 2.2585 106.005 2.83298C106.005 32.5145 106.005 62.196 106.005 91.8775C106.005 93.5052 105.622 93.9839 103.998 93.9839C74.1851 93.8881 44.3724 93.8881 14.6552 93.9839C13.2219 93.9839 13.0308 93.5051 13.0308 92.2604C13.1263 88.4306 12.6485 89.1008 16.0885 89.1008C43.7035 89.1008 71.3185 89.1008 98.838 89.1008C100.654 89.1008 101.227 88.6221 101.227 86.7071C101.131 60.4725 101.131 34.2379 101.131 8.00327C101.131 7.33305 101.131 6.66285 101.131 5.70539Z" fill="url(#paint1_linear_411_1113)"/>
<path d="M14.082 76.6547V37.1113H27.8418C34.3394 37.1113 39.5949 38.9305 43.417 42.4731C47.3347 46.0158 49.2458 50.8031 49.2458 56.8351C49.2458 62.7714 47.3347 67.6545 43.417 71.1972C39.4993 74.8355 34.3394 76.6547 27.7462 76.6547H14.082V76.6547ZM22.5863 69.1865H27.8418C31.855 69.1865 35.0083 68.1333 37.3016 66.0269C39.4993 63.9204 40.646 60.8565 40.646 56.8351C40.646 52.718 39.4993 49.6541 37.3016 47.5477C35.0083 45.4413 31.9506 44.3881 27.8418 44.3881H22.5863V69.1865V69.1865Z" fill="url(#paint2_linear_411_1113)"/>
<path d="M57.7506 65.2602C61.8594 68.1326 66.2549 69.4731 70.937 69.4731C75.5236 69.4731 77.8169 68.0368 77.8169 65.2602C77.8169 64.207 77.2436 63.3453 76.0969 62.6751C74.8547 62.0048 73.4214 61.5261 71.7015 61.2389C69.8859 60.9516 67.9749 60.4728 65.9682 59.9941C63.9616 59.4196 62.0505 58.8452 60.235 58.0792C58.4195 57.3132 56.9862 56.1643 55.8395 54.5366C54.6929 52.9089 54.1196 50.8982 54.1196 48.5045C54.1196 44.7704 55.6484 41.8022 58.6106 39.6001C61.5727 37.4936 65.2038 36.4404 69.5993 36.4404C75.6191 36.4404 80.7791 38.2596 85.079 41.898L80.7791 47.93C77.5302 45.5364 73.7081 44.3874 69.2171 44.3874C64.8216 44.3874 62.7194 45.7279 62.7194 48.4088C62.7194 49.3662 63.2927 50.2279 64.5349 50.8982C65.6816 51.5684 67.2104 52.0471 68.9304 52.3344C70.7459 52.6216 72.657 53.0046 74.6636 53.5791C76.7658 54.1536 78.6769 54.8238 80.3968 55.5898C82.2124 56.3558 83.6457 57.6005 84.7923 59.2282C85.9389 60.9516 86.6078 62.9623 86.6078 65.356C86.6078 69.1858 85.1745 72.154 82.4035 74.2604C79.6324 76.3668 75.8103 77.42 71.1281 77.42C67.6882 77.42 64.4394 76.8455 61.3816 75.7923C58.3239 74.6434 55.6484 73.2072 53.4507 71.2923L57.7506 65.2602Z" fill="url(#paint3_linear_411_1113)"/>
<path d="M125.307 51.512V25.2773H134.385C138.685 25.2773 142.125 26.4263 144.705 28.82C147.284 31.2137 148.622 34.3733 148.622 38.3947C148.622 42.416 147.38 45.5757 144.8 47.9693C142.22 50.363 138.78 51.6077 134.385 51.6077H125.307V51.512ZM130.945 46.5331H134.48C137.156 46.5331 139.258 45.8629 140.691 44.4267C142.125 43.0862 142.889 40.9798 142.889 38.2989C142.889 35.618 142.125 33.5116 140.691 32.1711C139.162 30.7349 137.156 30.0647 134.48 30.0647H130.945V46.5331Z" fill="url(#paint4_linear_411_1113)"/>
<path d="M170.792 51.512L168.785 46.3416H157.414L155.407 51.512H149.292L160.185 25.2773H166.301L177.098 51.512H170.792ZM159.23 41.6501H166.874L163.052 31.7882L159.23 41.6501Z" fill="url(#paint5_linear_411_1113)"/>
<path d="M206.146 25.2773H212.166L204.33 51.512H198.693L193.82 34.1818L188.946 51.512H183.404L175.569 25.2773H181.589L186.366 41.8416L191.049 25.2773H196.686L201.368 41.8416L206.146 25.2773Z" fill="url(#paint6_linear_411_1113)"/>
<path d="M232.328 25.2773H237.965V51.512H232.614L220.861 35.235V51.512H215.224V25.2773H220.575L232.328 41.6501V25.2773V25.2773Z" fill="url(#paint7_linear_411_1113)"/>
<path d="M126.645 74.5869C129.416 76.5018 132.283 77.3636 135.341 77.3636C138.398 77.3636 139.927 76.4061 139.927 74.5869C139.927 73.9167 139.545 73.3422 138.78 72.8635C138.016 72.3847 136.965 72.0975 135.818 71.906C134.672 71.7145 133.334 71.4273 131.996 71.0443C130.658 70.6613 129.416 70.2783 128.174 69.7038C127.027 69.2251 125.976 68.4591 125.212 67.3102C124.447 66.2569 124.065 64.9165 124.065 63.2888C124.065 60.7994 125.021 58.7887 127.027 57.4482C129.034 56.012 131.423 55.3418 134.289 55.3418C138.303 55.3418 141.743 56.5865 144.609 58.9802L141.743 63.0015C139.545 61.4696 137.06 60.6079 134.098 60.6079C131.232 60.6079 129.798 61.4696 129.798 63.2888C129.798 63.959 130.181 64.5335 130.945 64.9165C131.709 65.3952 132.665 65.6825 133.907 65.874C135.054 66.0654 136.392 66.3527 137.729 66.7357C139.067 67.1187 140.405 67.5016 141.552 68.0761C142.698 68.5549 143.749 69.4166 144.514 70.4698C145.278 71.6188 145.66 72.9592 145.66 74.5869C145.66 77.1721 144.705 79.087 142.889 80.5232C141.074 81.9594 138.494 82.6297 135.341 82.6297C133.047 82.6297 130.945 82.2467 128.843 81.4807C126.836 80.7147 125.021 79.7573 123.587 78.5126L126.645 74.5869Z" fill="url(#paint8_linear_411_1113)"/>
<path d="M164.485 82.4381C164.962 83.2998 165.727 83.8742 166.874 84.1615C168.02 84.353 169.167 84.353 170.122 84.1615C171.173 83.8742 172.033 83.587 172.607 83.204L174.136 87.4169C172.607 88.1829 170.791 88.5659 168.689 88.5659C163.911 88.5659 160.854 86.5552 159.42 82.5338C155.98 82.0551 153.209 80.5231 151.203 78.0337C149.196 75.64 148.145 72.5762 148.145 69.1293C148.145 65.2037 149.387 61.9482 151.967 59.3631C154.547 56.7779 157.891 55.5332 162.096 55.5332C166.3 55.5332 169.645 56.7779 172.225 59.3631C174.804 61.9482 176.047 65.1079 176.047 69.0335C176.047 72.5761 174.996 75.64 172.893 78.0337C170.791 80.5231 168.02 81.9593 164.485 82.4381ZM153.878 69.0335C153.878 71.5229 154.738 73.4378 156.267 75.0655C157.796 76.6932 159.803 77.4592 162.096 77.4592C164.485 77.4592 166.396 76.6932 167.925 75.0655C169.453 73.4378 170.313 71.4272 170.313 69.0335C170.313 66.6398 169.549 64.6291 167.925 63.0014C166.396 61.3738 164.389 60.6078 162 60.6078C159.611 60.6078 157.7 61.3738 156.172 63.0014C154.643 64.6291 153.878 66.6398 153.878 69.0335Z" fill="url(#paint9_linear_411_1113)"/>
<path d="M191.526 82.5346C188.086 82.5346 185.315 81.5771 183.213 79.5665C181.111 77.5558 180.155 74.8749 180.155 71.5238V55.8213H185.793V71.5238C185.793 73.343 186.271 74.7792 187.322 75.8324C188.373 76.8856 189.711 77.3643 191.526 77.3643C193.246 77.3643 194.584 76.8856 195.635 75.8324C196.686 74.7792 197.164 73.343 197.164 71.5238V55.8213H202.801V71.5238C202.801 74.8749 201.75 77.5558 199.744 79.5665C197.642 81.5771 194.966 82.5346 191.526 82.5346Z" fill="url(#paint10_linear_411_1113)"/>
<path d="M226.594 82.1506L224.588 76.9803H213.217L211.21 82.1506H205.095L215.988 55.916H222.103L232.901 82.1506H226.594ZM215.032 72.193H222.677L218.854 62.3311L215.032 72.193Z" fill="url(#paint11_linear_411_1113)"/>
<path d="M256.789 82.1516H250.292L245.323 73.8217H241.405V82.1516H235.768V55.8213H245.705C248.954 55.8213 251.534 56.683 253.445 58.3107C255.356 60.0341 256.312 62.1406 256.312 64.8215C256.312 66.6407 255.834 68.1726 254.974 69.5131C254.114 70.8535 252.872 71.9067 251.247 72.577L256.789 82.1516ZM250.578 64.8215C250.578 63.5768 250.101 62.5236 249.241 61.7576C248.381 60.9916 247.139 60.6086 245.61 60.6086H241.31V68.9386H245.61C247.234 68.9386 248.476 68.5556 249.336 67.8854C250.101 67.1194 250.578 66.162 250.578 64.8215Z" fill="url(#paint12_linear_411_1113)"/>
<path d="M266.728 60.8001V66.7364H277.716V71.5238H266.728V77.1728H279.245V82.0559H261.09V55.8213H279.245V60.7043H266.728V60.8001Z" fill="url(#paint13_linear_411_1113)"/>
<path d="M124.354 103.527H127.185C129.505 103.527 130.869 102.088 130.869 99.6333V99.6226C130.869 97.1733 129.494 95.7769 127.185 95.7769H124.354V103.527ZM125.74 102.356V96.9478H127.04C128.581 96.9478 129.457 97.8984 129.457 99.6279V99.6387C129.457 101.406 128.597 102.356 127.04 102.356H125.74ZM134.39 103.527H139.407V102.362H135.776V100.154H139.208V99.0317H135.776V96.9424H139.407V95.7769H134.39V103.527ZM145.753 103.662C147.644 103.662 148.782 102.743 148.782 101.298V101.293C148.782 100.084 148.079 99.4292 146.467 99.0962L145.63 98.9243C144.695 98.731 144.271 98.4087 144.271 97.8608V97.8555C144.271 97.2378 144.835 96.8135 145.742 96.8081C146.612 96.8081 147.209 97.2109 147.3 97.8877L147.311 97.9521H148.637L148.632 97.8608C148.551 96.5342 147.445 95.6426 145.753 95.6426C144.083 95.6426 142.885 96.5664 142.88 97.9307V97.936C142.88 99.0908 143.632 99.7998 145.157 100.117L145.989 100.289C146.988 100.498 147.391 100.81 147.391 101.39V101.395C147.391 102.061 146.779 102.496 145.801 102.496C144.829 102.496 144.147 102.083 144.045 101.417L144.034 101.352H142.708L142.713 101.433C142.804 102.824 143.975 103.662 145.753 103.662ZM152.239 103.527H153.625V95.7769H152.239V103.527ZM160.814 103.662C162.936 103.662 164.193 102.399 164.193 100.294V99.4561H160.916V100.536H162.839L162.834 100.654C162.807 101.739 162.001 102.458 160.83 102.458C159.434 102.458 158.558 101.39 158.558 99.6118V99.6064C158.558 97.8662 159.396 96.8457 160.793 96.8457C161.743 96.8457 162.415 97.3291 162.71 98.1616L162.726 98.2207H164.134L164.112 98.1348C163.817 96.7061 162.624 95.6426 160.787 95.6426C158.553 95.6426 157.146 97.1572 157.146 99.6172V99.6226C157.146 102.125 158.553 103.662 160.814 103.662ZM167.746 103.527H169.126V98.0757H169.153L172.94 103.527H174.175V95.7769H172.8V101.207H172.768L168.992 95.7769H167.746V103.527ZM185.96 103.662C187.743 103.662 189.059 102.561 189.258 100.971L189.269 100.917H187.91L187.894 100.971C187.641 101.927 186.948 102.458 185.96 102.458C184.612 102.458 183.742 101.374 183.742 99.6494V99.644C183.742 97.9253 184.607 96.8457 185.96 96.8457C186.97 96.8457 187.652 97.3989 187.878 98.2852L187.904 98.3872H189.263L189.258 98.3335C189.054 96.7544 187.743 95.6426 185.96 95.6426C183.736 95.6426 182.324 97.168 182.324 99.644V99.6494C182.324 102.125 183.731 103.662 185.96 103.662ZM196.157 103.662C198.424 103.662 199.831 102.12 199.831 99.6548V99.644C199.831 97.1841 198.419 95.6426 196.157 95.6426C193.902 95.6426 192.478 97.1841 192.478 99.644V99.6548C192.478 102.12 193.891 103.662 196.157 103.662ZM196.157 102.458C194.772 102.458 193.891 101.379 193.891 99.6548V99.644C193.891 97.9199 194.777 96.8457 196.157 96.8457C197.543 96.8457 198.424 97.9253 198.424 99.644V99.6548C198.424 101.363 197.559 102.458 196.157 102.458ZM203.358 103.527H204.738V98.0757H204.765L208.551 103.527H209.787V95.7769H208.412V101.207H208.38L204.604 95.7769H203.358V103.527ZM216.3 103.662C218.19 103.662 219.329 102.743 219.329 101.298V101.293C219.329 100.084 218.625 99.4292 217.014 99.0962L216.176 98.9243C215.242 98.731 214.817 98.4087 214.817 97.8608V97.8555C214.817 97.2378 215.381 96.8135 216.289 96.8081C217.159 96.8081 217.755 97.2109 217.846 97.8877L217.857 97.9521H219.184L219.179 97.8608C219.098 96.5342 217.992 95.6426 216.3 95.6426C214.629 95.6426 213.431 96.5664 213.426 97.9307V97.936C213.426 99.0908 214.178 99.7998 215.703 100.117L216.536 100.289C217.535 100.498 217.938 100.81 217.938 101.39V101.395C217.938 102.061 217.325 102.496 216.348 102.496C215.376 102.496 214.694 102.083 214.592 101.417L214.581 101.352H213.254L213.26 101.433C213.351 102.824 214.522 103.662 216.3 103.662ZM225.976 103.662C227.947 103.662 229.156 102.507 229.156 100.793V95.7769H227.775V100.681C227.775 101.755 227.125 102.458 225.976 102.458C224.827 102.458 224.171 101.755 224.171 100.681V95.7769H222.786V100.793C222.786 102.507 224.01 103.662 225.976 103.662ZM232.951 103.527H237.854V102.362H234.336V95.7769H232.951V103.527ZM242.101 103.527H243.481V96.9424H245.796V95.7769H239.78V96.9424H242.101V103.527ZM247.566 103.527H249.016L249.672 101.524H252.556L253.211 103.527H254.667L251.895 95.7769H250.338L247.566 103.527ZM251.1 97.1572H251.132L252.207 100.455H250.021L251.1 97.1572ZM257.914 103.527H259.294V98.0757H259.321L263.108 103.527H264.343V95.7769H262.968V101.207H262.936L259.16 95.7769H257.914V103.527ZM271.506 103.662C273.289 103.662 274.605 102.561 274.803 100.971L274.814 100.917H273.455L273.439 100.971C273.187 101.927 272.494 102.458 271.506 102.458C270.158 102.458 269.287 101.374 269.287 99.6494V99.644C269.287 97.9253 270.152 96.8457 271.506 96.8457C272.515 96.8457 273.198 97.3989 273.423 98.2852L273.45 98.3872H274.809L274.803 98.3335C274.599 96.7544 273.289 95.6426 271.506 95.6426C269.282 95.6426 267.869 97.168 267.869 99.644V99.6494C267.869 102.125 269.277 103.662 271.506 103.662ZM280.145 103.527H281.526V100.471L284.244 95.7769H282.729L280.854 99.1499H280.817L278.942 95.7769H277.428L280.145 100.471V103.527Z" fill="#F04961"/>
<defs>
<linearGradient id="paint0_linear_411_1113" x1="0.609375" y1="59.749" x2="93.5078" y2="59.749" gradientUnits="userSpaceOnUse">
<stop offset="0.02" stop-color="#EF4860"/>
<stop offset="1" stop-color="#DD1047"/>
</linearGradient>
<linearGradient id="paint1_linear_411_1113" x1="13.0308" y1="47.3985" x2="106.005" y2="47.3985" gradientUnits="userSpaceOnUse">
<stop offset="0.02" stop-color="#EF4860"/>
<stop offset="1" stop-color="#DD1047"/>
</linearGradient>
<linearGradient id="paint2_linear_411_1113" x1="895.286" y1="12783.9" x2="3809.66" y2="12783.9" gradientUnits="userSpaceOnUse">
<stop stop-color="#379278"/>
<stop offset="1" stop-color="#1E514D"/>
</linearGradient>
<linearGradient id="paint3_linear_411_1113" x1="884.369" y1="13246.2" x2="3632.43" y2="13246.2" gradientUnits="userSpaceOnUse">
<stop stop-color="#379278"/>
<stop offset="1" stop-color="#1E514D"/>
</linearGradient>
<linearGradient id="paint4_linear_411_1113" x1="709.584" y1="8512.86" x2="2641.94" y2="8512.86" gradientUnits="userSpaceOnUse">
<stop stop-color="#379278"/>
<stop offset="1" stop-color="#1E514D"/>
</linearGradient>
<linearGradient id="paint5_linear_411_1113" x1="846.112" y1="8482.02" x2="3150.68" y2="8482.02" gradientUnits="userSpaceOnUse">
<stop stop-color="#379278"/>
<stop offset="1" stop-color="#1E514D"/>
</linearGradient>
<linearGradient id="paint6_linear_411_1113" x1="1092.69" y1="8482.02" x2="4125.85" y2="8482.02" gradientUnits="userSpaceOnUse">
<stop stop-color="#379278"/>
<stop offset="1" stop-color="#1E514D"/>
</linearGradient>
<linearGradient id="paint7_linear_411_1113" x1="785.134" y1="8482.02" x2="2669.98" y2="8482.02" gradientUnits="userSpaceOnUse">
<stop stop-color="#379278"/>
<stop offset="1" stop-color="#1E514D"/>
</linearGradient>
<linearGradient id="paint8_linear_411_1113" x1="676.735" y1="8851.58" x2="2506.14" y2="8851.58" gradientUnits="userSpaceOnUse">
<stop stop-color="#379278"/>
<stop offset="1" stop-color="#1E514D"/>
</linearGradient>
<linearGradient id="paint9_linear_411_1113" x1="847.36" y1="10703.6" x2="3159.85" y2="10703.6" gradientUnits="userSpaceOnUse">
<stop stop-color="#379278"/>
<stop offset="1" stop-color="#1E514D"/>
</linearGradient>
<linearGradient id="paint10_linear_411_1113" x1="747.668" y1="8666.87" x2="2624.58" y2="8666.87" gradientUnits="userSpaceOnUse">
<stop stop-color="#379278"/>
<stop offset="1" stop-color="#1E514D"/>
</linearGradient>
<linearGradient id="paint11_linear_411_1113" x1="901.916" y1="8512.65" x2="3206.49" y2="8512.65" gradientUnits="userSpaceOnUse">
<stop stop-color="#379278"/>
<stop offset="1" stop-color="#1E514D"/>
</linearGradient>
<linearGradient id="paint12_linear_411_1113" x1="762.576" y1="8543.41" x2="2504.87" y2="8543.41" gradientUnits="userSpaceOnUse">
<stop stop-color="#379278"/>
<stop offset="1" stop-color="#1E514D"/>
</linearGradient>
<linearGradient id="paint13_linear_411_1113" x1="716.061" y1="8512.55" x2="2220.77" y2="8512.55" gradientUnits="userSpaceOnUse">
<stop stop-color="#379278"/>
<stop offset="1" stop-color="#1E514D"/>
</linearGradient>
</defs>
</svg>
