<?xml version="1.0" standalone="no"?>
<!DOCTYPE svg PUBLIC "-//W3C//DTD SVG 20010904//EN"
 "http://www.w3.org/TR/2001/REC-SVG-20010904/DTD/svg10.dtd">
<svg version="1.0" xmlns="http://www.w3.org/2000/svg"
 width="600.000000pt" height="600.000000pt" viewBox="0 0 600.000000 600.000000"
 preserveAspectRatio="xMidYMid meet">
<metadata>
Created by potrace 1.11, written by Peter Selinger 2001-2013
</metadata>
<g transform="translate(0.000000,600.000000) scale(0.100000,-0.100000)"
fill="#000000" stroke="none">
<path d="M3761 5294 c-114 -35 -218 -117 -278 -221 -26 -44 -31 -48 -68 -49
-65 -3 -228 -14 -260 -18 -16 -2 -59 -7 -95 -11 -36 -4 -74 -9 -85 -11 -11 -3
-38 -7 -60 -9 -22 -3 -53 -8 -70 -12 -16 -4 -36 -6 -42 -4 -7 1 -13 -3 -13 -8
0 -6 -6 -8 -12 -6 -7 3 -67 -9 -133 -25 -66 -17 -128 -32 -137 -34 -36 -9
-236 -76 -303 -101 -38 -15 -76 -27 -82 -28 -7 0 -13 -4 -13 -9 0 -4 -6 -8
-14 -8 -24 0 -238 -108 -256 -129 -3 -3 -12 -7 -20 -9 -18 -4 -134 -75 -138
-85 -2 -4 -8 -5 -13 -1 -5 3 -9 0 -9 -5 0 -6 -7 -11 -15 -11 -8 0 -15 -4 -15
-10 0 -5 -6 -10 -13 -10 -7 0 -22 -8 -33 -18 -10 -9 -45 -34 -76 -56 -31 -21
-70 -52 -87 -68 -17 -17 -31 -26 -31 -22 0 5 -4 4 -8 -2 -4 -6 -29 -30 -57
-54 -102 -87 -250 -238 -335 -341 -50 -61 -160 -209 -160 -216 0 -3 -13 -22
-30 -43 -16 -20 -27 -40 -23 -44 3 -3 2 -6 -3 -6 -5 0 -18 -17 -29 -37 -11
-21 -30 -53 -43 -70 -14 -18 -21 -33 -17 -33 4 0 3 -6 -3 -12 -12 -16 -92
-165 -93 -176 -1 -4 -9 -23 -19 -42 -9 -19 -25 -57 -35 -85 -10 -27 -22 -54
-25 -60 -7 -9 -87 -240 -96 -274 -2 -9 -15 -56 -29 -105 -13 -50 -22 -92 -20
-94 3 -3 1 -10 -4 -16 -5 -6 -12 -24 -14 -41 -3 -16 -8 -39 -10 -50 -3 -11 -8
-40 -13 -65 -4 -25 -8 -47 -9 -50 -1 -3 -5 -34 -10 -70 -5 -36 -9 -67 -10 -70
-2 -8 -17 -142 -21 -180 -7 -72 -17 -288 -17 -370 0 -91 12 -345 18 -395 2
-16 7 -57 10 -90 3 -33 8 -67 10 -75 2 -8 7 -37 10 -65 6 -53 12 -90 15 -90 1
0 3 -9 4 -20 2 -11 6 -42 11 -70 5 -27 8 -53 7 -57 -1 -5 3 -8 9 -8 5 0 8 -4
5 -9 -3 -4 -1 -23 4 -42 6 -19 13 -47 16 -64 6 -35 21 -55 32 -40 4 6 12 11
17 12 6 1 70 27 143 58 74 30 188 73 255 95 67 23 129 44 137 47 8 3 18 6 21
5 4 -1 38 7 75 17 38 10 87 22 109 26 22 5 46 9 53 11 73 14 187 29 312 40
130 11 551 17 803 11 53 -1 97 0 97 3 0 3 30 6 68 7 37 0 85 4 107 8 22 3 56
8 75 10 19 2 50 8 69 14 19 6 38 8 43 5 5 -3 14 -1 21 5 7 5 35 13 62 16 28 4
61 9 75 11 14 3 36 7 50 9 14 2 25 4 25 5 0 1 11 3 25 6 14 2 32 7 40 11 8 3
20 7 25 8 6 2 47 14 93 28 45 14 82 23 82 20 0 -3 6 0 13 6 8 6 17 8 20 4 4
-3 7 -2 7 4 0 6 10 14 23 18 12 4 24 8 27 10 3 1 23 9 45 18 63 27 185 91 203
108 9 8 22 16 27 17 17 4 155 105 155 114 0 4 5 8 10 8 6 0 25 13 43 29 17 16
42 38 55 49 12 11 22 24 22 31 0 6 3 10 8 8 9 -3 58 46 55 55 -2 5 3 8 10 9
13 0 104 109 103 122 -1 5 7 13 16 18 9 5 31 31 49 57 105 154 149 222 149
231 0 5 5 11 11 13 5 2 11 10 13 18 1 8 15 35 30 60 16 24 36 65 45 91 9 25
24 58 34 72 9 14 17 33 17 41 0 8 3 16 8 18 15 7 142 259 136 270 -3 4 -1 8 4
8 8 0 36 53 37 70 0 3 12 30 27 60 14 30 37 80 51 110 14 30 42 91 63 135 21
44 38 82 39 85 0 3 11 24 23 48 12 23 19 42 15 42 -5 0 -3 4 3 8 15 10 47 72
37 72 -5 0 -3 4 2 8 16 12 45 69 38 76 -3 3 -1 6 5 6 6 0 25 30 44 68 18 37
36 69 39 72 3 3 8 12 12 20 4 8 20 38 37 65 17 28 33 58 37 68 3 9 9 17 14 17
5 0 9 5 9 11 0 6 9 22 20 36 11 14 17 29 14 34 -3 5 -1 9 4 9 11 0 98 131 94
143 -1 4 2 7 7 7 5 0 41 44 79 98 39 53 83 112 99 131 15 18 28 36 27 40 0 3
10 14 23 25 13 10 22 21 19 23 -3 3 9 17 25 30 16 14 28 28 25 31 -3 2 6 13
19 24 14 11 23 23 20 28 -3 5 0 12 6 16 8 5 9 3 4 -7 -8 -12 -6 -12 8 0 10 8
15 16 13 19 -3 2 6 13 19 24 31 24 32 34 3 36 -67 4 -419 3 -453 -1 -22 -3
-74 -9 -115 -13 -83 -8 -115 -12 -115 -14 0 -1 -16 -3 -35 -6 -19 -2 -46 -7
-60 -10 -14 -3 -38 -8 -55 -11 -56 -10 -171 -40 -270 -71 -27 -9 -53 -17 -57
-18 -5 -1 -9 -2 -10 -4 -2 -1 -10 -3 -18 -5 -31 -7 -165 -57 -170 -63 -3 -4
-12 -8 -20 -10 -53 -9 -430 -180 -430 -194 0 -5 -4 -7 -9 -3 -5 3 -17 -2 -25
-11 -9 -8 -16 -13 -16 -9 0 3 -18 -4 -40 -16 -22 -13 -40 -26 -40 -31 0 -4 -7
-5 -15 -2 -8 4 -15 1 -15 -5 0 -6 -5 -11 -10 -11 -6 0 -50 -22 -98 -50 l-87
-50 -23 28 c-91 106 -156 171 -165 165 -5 -3 -7 -2 -4 4 3 5 -5 17 -17 26 -13
10 -38 31 -57 48 -19 17 -46 38 -61 47 -16 9 -28 20 -28 23 0 4 -12 6 -27 3
-41 -7 -247 -67 -253 -73 -3 -3 -12 -7 -20 -9 -15 -3 -97 -33 -155 -57 -131
-55 -407 -192 -416 -207 -3 -5 -8 -9 -10 -7 -4 2 -69 -32 -111 -59 -27 -17
-126 -78 -160 -98 -11 -6 -30 -21 -44 -33 -13 -11 -24 -18 -24 -16 0 3 -12 -6
-27 -20 -15 -14 -31 -25 -36 -25 -4 0 -33 -21 -65 -46 -64 -52 -73 -61 -53
-49 9 5 12 4 7 -3 -4 -7 -13 -12 -20 -12 -22 0 -180 -175 -171 -190 3 -4 -1
-10 -9 -13 -28 -11 -121 -216 -132 -292 -1 -11 -7 -42 -12 -69 -10 -49 -8
-227 2 -276 3 -14 14 -54 24 -90 11 -36 18 -73 16 -83 -1 -9 2 -15 7 -11 5 3
9 -4 9 -15 0 -12 4 -21 8 -21 5 0 16 -15 25 -34 9 -19 39 -67 68 -108 166
-233 417 -360 694 -352 88 3 238 30 243 45 2 5 7 7 12 4 11 -7 212 74 226 91
6 7 13 11 16 8 3 -3 28 8 54 23 27 15 79 44 116 63 36 19 64 39 61 44 -4 5 -1
6 5 2 6 -4 20 1 30 11 10 10 24 19 30 20 11 3 183 112 192 123 3 3 28 20 55
37 28 18 62 44 78 58 15 14 27 22 27 18 0 -4 4 -3 8 2 4 6 36 33 71 60 36 28
81 64 100 80 64 55 268 260 278 280 10 19 8 44 -12 170 -10 66 -54 221 -84
299 l-28 74 21 18 c11 10 26 19 31 20 17 3 180 97 187 108 4 6 8 8 8 3 0 -4
46 16 103 45 56 29 104 53 107 54 8 1 56 22 106 44 94 43 331 129 356 130 9 0
6 -23 -4 -30 -3 -3 -8 -12 -10 -20 -2 -8 -11 -23 -20 -34 -10 -10 -15 -23 -12
-28 3 -4 1 -8 -3 -8 -5 0 -40 -62 -77 -137 -38 -76 -79 -159 -92 -184 -13 -26
-20 -49 -17 -53 4 -3 1 -6 -5 -6 -6 0 -14 -10 -18 -22 -4 -13 -25 -61 -46
-108 -22 -47 -46 -98 -53 -115 -7 -16 -31 -68 -53 -115 -21 -47 -45 -102 -53
-122 -7 -21 -17 -38 -21 -38 -4 0 -8 -6 -8 -13 0 -6 -11 -33 -25 -60 -14 -26
-22 -47 -18 -47 5 0 4 -4 -2 -8 -14 -10 -50 -84 -48 -100 0 -7 -1 -11 -4 -8
-3 3 -21 -26 -41 -65 -20 -38 -45 -79 -56 -91 -12 -13 -21 -25 -21 -28 0 -3
-3 -4 -6 -3 -4 1 -5 -7 -2 -17 3 -11 1 -20 -4 -20 -4 0 -20 -21 -33 -47 -14
-26 -31 -54 -37 -61 -7 -7 -13 -17 -13 -22 0 -5 -6 -15 -13 -22 -7 -7 -29 -37
-50 -66 -21 -29 -50 -67 -65 -84 -15 -17 -26 -36 -24 -42 2 -6 1 -8 -2 -5 -4
4 -48 -34 -99 -82 -117 -113 -137 -131 -137 -124 0 4 -6 0 -14 -8 -8 -7 -38
-29 -68 -47 -29 -19 -63 -43 -75 -54 -13 -10 -23 -16 -23 -12 0 3 -19 -4 -42
-17 -24 -13 -68 -33 -98 -46 -30 -12 -64 -26 -75 -31 -68 -28 -217 -68 -324
-86 -18 -3 -43 -8 -55 -10 -11 -2 -50 -7 -86 -10 -36 -3 -76 -8 -90 -11 -14
-2 -229 -6 -478 -8 -582 -5 -709 -12 -917 -49 -11 -2 -38 -7 -60 -11 -22 -3
-89 -20 -150 -36 -147 -40 -179 -48 -182 -46 -14 14 -20 463 -8 607 11 147 12
151 20 210 5 30 9 64 11 75 1 11 3 20 4 20 1 0 3 11 6 24 2 14 9 30 15 37 7 8
7 14 -1 19 -6 3 -7 12 -3 18 4 7 9 23 11 37 2 13 9 28 15 32 9 6 9 8 -1 8 -8
0 -10 5 -5 13 4 6 8 21 9 32 1 11 7 40 14 65 7 25 13 52 15 60 2 8 13 49 26
90 13 41 24 77 24 80 1 3 5 14 10 25 4 11 21 56 38 100 17 44 35 85 40 92 5 7
6 16 3 22 -3 5 -2 11 3 13 10 4 96 179 93 191 -1 4 1 7 6 7 4 0 21 26 37 58
17 31 32 59 35 62 11 10 40 60 36 60 -3 0 6 12 20 27 13 14 22 28 20 30 -2 3
3 13 12 22 10 10 37 46 62 81 25 35 50 68 55 74 6 6 30 36 55 66 25 30 94 105
154 165 60 61 109 114 108 118 -2 5 2 6 8 2 5 -3 13 1 16 9 3 9 12 16 19 16 7
0 15 4 17 9 3 9 95 84 148 121 19 13 40 29 47 35 35 29 43 35 47 35 9 0 141
84 148 95 4 5 8 6 8 2 0 -5 12 0 28 11 15 11 37 23 50 26 12 4 22 12 22 17 0
5 3 8 8 7 4 -1 47 17 95 40 49 23 92 42 98 42 5 0 9 5 9 12 0 6 3 9 6 5 4 -3
19 0 35 9 16 8 29 12 29 9 0 -3 10 0 23 7 12 7 24 13 27 13 21 5 96 30 100 35
5 5 14 7 50 15 8 2 62 15 120 30 58 15 116 29 130 31 14 2 36 7 50 11 14 3 28
6 32 5 4 -1 31 3 60 8 80 14 203 28 278 32 31 2 50 -5 50 -17 0 -8 4 -15 8
-15 5 0 9 -6 9 -13 0 -24 70 -123 114 -161 36 -31 152 -99 161 -95 2 1 23 -4
47 -11 23 -6 71 -10 105 -9 64 2 159 25 164 39 2 5 10 6 18 3 8 -3 14 0 14 6
0 6 7 11 15 11 8 0 15 4 15 10 0 5 3 9 8 8 13 -4 52 26 52 40 0 7 4 11 9 8 9
-6 65 58 87 99 6 11 20 37 32 58 12 20 20 37 18 37 -3 0 0 15 5 33 27 89 19
200 -23 307 -51 130 -173 240 -308 275 -62 16 -183 16 -239 -1z m172 -275 c44
-12 100 -58 120 -98 20 -40 18 -116 -4 -160 -21 -41 -43 -71 -53 -71 -3 0 -15
-9 -26 -20 -20 -20 -36 -24 -103 -22 -82 2 -158 78 -165 166 -8 99 38 173 125
200 60 18 60 18 106 5z m-817 -1157 c-6 -6 39 -49 47 -45 4 2 7 0 7 -6 0 -6
17 -28 38 -49 63 -65 111 -133 105 -148 -3 -9 -11 -13 -18 -10 -8 3 -16 -2
-19 -10 -3 -8 -12 -14 -20 -14 -8 0 -16 -5 -18 -11 -2 -6 -15 -12 -30 -12 -14
-1 -26 -4 -26 -7 1 -20 -4 -30 -12 -25 -6 3 -13 -1 -16 -9 -3 -9 -10 -13 -15
-10 -5 3 -12 -1 -15 -9 -3 -9 -15 -18 -27 -21 -13 -3 -32 -15 -45 -26 -12 -11
-22 -18 -22 -15 0 4 -13 -3 -29 -14 -16 -12 -34 -21 -40 -21 -6 0 -11 -3 -11
-8 0 -4 -21 -18 -47 -32 -27 -13 -50 -27 -53 -30 -3 -3 -24 -16 -47 -27 -36
-19 -43 -20 -53 -7 -7 8 -9 14 -5 14 8 0 -34 72 -48 81 -5 3 -8 9 -8 13 2 8
-40 87 -74 141 -14 22 -27 47 -31 55 -3 8 -10 23 -15 32 -12 22 -12 31 0 23 5
-3 13 -1 16 5 4 6 28 20 53 32 26 12 50 26 53 31 3 5 8 8 10 7 2 -1 18 4 34
11 17 7 32 13 35 14 3 1 18 7 33 13 16 7 33 12 38 12 5 0 9 5 9 10 0 6 3 9 8
8 11 -3 92 24 92 31 0 4 12 8 28 9 15 1 29 7 30 12 2 6 7 8 12 5 4 -3 19 -1
32 4 21 9 71 11 64 3z m-858 -391 c8 -4 12 -10 11 -12 -3 -4 50 -100 61 -109
3 -3 6 -10 7 -16 1 -5 21 -44 46 -85 24 -41 46 -81 50 -89 4 -8 23 -42 43 -75
19 -33 38 -68 41 -77 3 -10 9 -18 14 -18 5 0 9 -7 9 -15 0 -8 5 -15 10 -15 6
0 9 -3 8 -7 -2 -5 29 -63 67 -131 39 -67 79 -140 91 -162 11 -22 23 -38 26
-35 2 3 5 -1 5 -7 0 -7 19 -45 42 -84 22 -39 41 -75 41 -80 0 -5 -15 -15 -32
-23 -18 -8 -35 -17 -38 -20 -18 -21 -244 -119 -336 -146 -62 -19 -220 -25
-284 -12 -63 13 -137 57 -199 116 -34 32 -61 57 -61 54 0 -2 -7 2 -15 11 -8 8
-15 17 -15 21 0 3 -9 16 -21 28 -21 23 -68 107 -74 136 -2 9 -11 39 -18 67
-13 47 -15 189 -4 239 23 96 95 215 182 302 34 35 59 66 56 69 -3 3 -1 4 4 2
8 -2 115 71 135 92 3 3 30 21 60 40 30 19 57 38 58 42 5 10 14 10 30 -1z
m1230 -128 c-3 -16 15 -63 24 -63 5 0 7 -4 3 -9 -3 -5 -1 -20 4 -33 15 -37 24
-62 27 -75 1 -6 7 -28 14 -48 23 -70 20 -97 -17 -138 -18 -20 -33 -35 -33 -32
0 3 -16 -10 -37 -30 -20 -19 -40 -35 -45 -35 -5 0 -6 -4 -3 -10 3 -5 2 -10 -3
-10 -9 0 -93 -62 -123 -91 -9 -9 -37 -30 -62 -48 -26 -18 -47 -37 -47 -43 0
-6 -3 -8 -7 -5 -3 4 -14 0 -24 -9 -10 -9 -23 -14 -29 -12 -13 4 -63 85 -81
131 -6 15 -15 27 -21 27 -5 0 -6 5 -3 10 3 6 1 10 -4 10 -6 0 -11 4 -11 9 0 5
-18 41 -40 79 -39 68 -56 113 -42 110 12 -3 62 25 62 34 0 4 5 8 10 8 10 0
231 129 240 140 3 4 20 13 38 21 17 8 32 17 32 21 0 5 7 8 15 8 8 0 15 4 15 9
0 5 8 11 18 14 9 4 40 20 67 36 52 31 66 36 63 24z"/>
</g>
</svg>
